<svg width="32" height="32" viewBox="0 0 32 32" fill="none" xmlns="http://www.w3.org/2000/svg">
    <circle cx="16" cy="16" r="16" fill="#E87721" />
    <path fill-rule="evenodd" clip-rule="evenodd" d="M21.3332 13.3222C21.3332 10.395 18.9332 8 15.9998 8C13.0665 8 10.6665 10.395 10.6665 13.3222C10.6665 15.052 11.4665 16.5821 12.7332 17.5135L11.9998 23.2349C11.9332 23.501 12.0665 23.7672 12.2665 23.9002C12.4665 24.0333 12.7332 24.0333 12.9998 23.9002L15.9998 22.104L18.9998 23.9002C19.0665 23.9667 19.1998 23.9667 19.3332 23.9667C19.4665 23.9667 19.5998 23.9002 19.6665 23.8337C19.8665 23.7006 19.9998 23.4345 19.9332 23.1684L19.1998 17.5135C20.5332 16.5821 21.3332 15.052 21.3332 13.3222ZM11.9998 13.3222C11.9998 11.1268 13.7998 9.33056 15.9998 9.33056C18.1998 9.33056 19.9998 11.1268 19.9998 13.3222C19.9998 15.5177 18.1998 17.3139 15.9998 17.3139C13.7998 17.3139 11.9998 15.5177 11.9998 13.3222ZM16.3332 20.7734L18.4665 22.0374L17.9998 18.2453C17.3998 18.5114 16.7332 18.6445 15.9998 18.6445C15.2665 18.6445 14.5998 18.5114 13.9998 18.2453L13.5332 22.0374L15.6665 20.7734C15.8665 20.6403 16.1332 20.6403 16.3332 20.7734Z" fill="black" />
    <mask id="mask0_767_65732" style="mask-type:alpha" maskUnits="userSpaceOnUse" x="10" y="8" width="12" height="16">
        <path fill-rule="evenodd" clip-rule="evenodd" d="M21.3332 13.3222C21.3332 10.395 18.9332 8 15.9998 8C13.0665 8 10.6665 10.395 10.6665 13.3222C10.6665 15.052 11.4665 16.5821 12.7332 17.5135L11.9998 23.2349C11.9332 23.501 12.0665 23.7672 12.2665 23.9002C12.4665 24.0333 12.7332 24.0333 12.9998 23.9002L15.9998 22.104L18.9998 23.9002C19.0665 23.9667 19.1998 23.9667 19.3332 23.9667C19.4665 23.9667 19.5998 23.9002 19.6665 23.8337C19.8665 23.7006 19.9998 23.4345 19.9332 23.1684L19.1998 17.5135C20.5332 16.5821 21.3332 15.052 21.3332 13.3222ZM11.9998 13.3222C11.9998 11.1268 13.7998 9.33056 15.9998 9.33056C18.1998 9.33056 19.9998 11.1268 19.9998 13.3222C19.9998 15.5177 18.1998 17.3139 15.9998 17.3139C13.7998 17.3139 11.9998 15.5177 11.9998 13.3222ZM16.3332 20.7734L18.4665 22.0374L17.9998 18.2453C17.3998 18.5114 16.7332 18.6445 15.9998 18.6445C15.2665 18.6445 14.5998 18.5114 13.9998 18.2453L13.5332 22.0374L15.6665 20.7734C15.8665 20.6403 16.1332 20.6403 16.3332 20.7734Z" fill="white" />
    </mask>
    <g mask="url(#mask0_767_65732)">
        <rect x="8" y="8" width="16" height="16" fill="white" />
    </g>
</svg>
    