<svg width="256" height="42" viewBox="0 0 256 42" fill="none" xmlns="http://www.w3.org/2000/svg">
    <path d="M161.046 20.3719C161.046 18.7572 161.317 17.4972 161.858 16.5919C162.409 15.6772 163.351 15.2199 164.686 15.2199C166.021 15.2199 166.959 15.6772 167.5 16.5919C168.051 17.4972 168.326 18.7572 168.326 20.3719C168.326 22.0052 168.051 23.2839 167.5 24.2079C166.959 25.1226 166.021 25.5799 164.686 25.5799C163.351 25.5799 162.409 25.1226 161.858 24.2079C161.317 23.2839 161.046 22.0052 161.046 20.3719ZM166.758 20.3719C166.758 19.6159 166.707 18.9766 166.604 18.4539C166.511 17.9312 166.315 17.5066 166.016 17.1799C165.717 16.8439 165.274 16.6759 164.686 16.6759C164.098 16.6759 163.655 16.8439 163.356 17.1799C163.057 17.5066 162.857 17.9312 162.754 18.4539C162.661 18.9766 162.614 19.6159 162.614 20.3719C162.614 21.1559 162.661 21.8139 162.754 22.3459C162.847 22.8779 163.043 23.3072 163.342 23.6339C163.65 23.9606 164.098 24.1239 164.686 24.1239C165.274 24.1239 165.717 23.9606 166.016 23.6339C166.324 23.3072 166.525 22.8779 166.618 22.3459C166.711 21.8139 166.758 21.1559 166.758 20.3719ZM173.929 21.7019L176.421 25.6079H174.615L172.949 22.9899L171.381 25.6079H169.715L172.207 21.8139L169.715 17.8939H171.521L173.187 20.5119L174.755 17.8939H176.421L173.929 21.7019ZM184.381 16.7739H179.691V19.5599C179.887 19.2986 180.176 19.0792 180.559 18.9019C180.951 18.7246 181.366 18.6359 181.805 18.6359C182.589 18.6359 183.224 18.8039 183.709 19.1399C184.204 19.4759 184.554 19.9006 184.759 20.4139C184.974 20.9272 185.081 21.4686 185.081 22.0379C185.081 22.7286 184.946 23.3446 184.675 23.8859C184.414 24.4179 184.017 24.8379 183.485 25.1459C182.962 25.4539 182.318 25.6079 181.553 25.6079C180.536 25.6079 179.719 25.3559 179.103 24.8519C178.487 24.3479 178.118 23.6806 177.997 22.8499H179.551C179.654 23.2886 179.882 23.6386 180.237 23.8999C180.592 24.1519 181.035 24.2779 181.567 24.2779C182.23 24.2779 182.724 24.0772 183.051 23.6759C183.387 23.2746 183.555 22.7426 183.555 22.0799C183.555 21.4079 183.387 20.8946 183.051 20.5399C182.715 20.1759 182.22 19.9939 181.567 19.9939C181.11 19.9939 180.722 20.1106 180.405 20.3439C180.097 20.5679 179.873 20.8759 179.733 21.2679H178.221V15.3739H184.381V16.7739ZM193.722 16.7739H189.032V19.5599C189.228 19.2986 189.518 19.0792 189.9 18.9019C190.292 18.7246 190.708 18.6359 191.146 18.6359C191.93 18.6359 192.565 18.8039 193.05 19.1399C193.545 19.4759 193.895 19.9006 194.1 20.4139C194.315 20.9272 194.422 21.4686 194.422 22.0379C194.422 22.7286 194.287 23.3446 194.016 23.8859C193.755 24.4179 193.358 24.8379 192.826 25.1459C192.304 25.4539 191.66 25.6079 190.894 25.6079C189.877 25.6079 189.06 25.3559 188.444 24.8519C187.828 24.3479 187.46 23.6806 187.338 22.8499H188.892C188.995 23.2886 189.224 23.6386 189.578 23.8999C189.933 24.1519 190.376 24.2779 190.908 24.2779C191.571 24.2779 192.066 24.0772 192.392 23.6759C192.728 23.2746 192.896 22.7426 192.896 22.0799C192.896 21.4079 192.728 20.8946 192.392 20.5399C192.056 20.1759 191.562 19.9939 190.908 19.9939C190.451 19.9939 190.064 20.1106 189.746 20.3439C189.438 20.5679 189.214 20.8759 189.074 21.2679H187.562V15.3739H193.722V16.7739ZM196.456 17.9219C196.512 17.0539 196.843 16.3772 197.45 15.8919C198.066 15.4066 198.85 15.1639 199.802 15.1639C200.455 15.1639 201.02 15.2806 201.496 15.5139C201.972 15.7472 202.331 16.0646 202.574 16.4659C202.816 16.8672 202.938 17.3199 202.938 17.8239C202.938 18.4026 202.784 18.8972 202.476 19.3079C202.168 19.7186 201.799 19.9939 201.37 20.1339V20.1899C201.92 20.3579 202.35 20.6659 202.658 21.1139C202.966 21.5526 203.12 22.1172 203.12 22.8079C203.12 23.3586 202.994 23.8486 202.742 24.2779C202.49 24.7072 202.116 25.0479 201.622 25.2999C201.127 25.5426 200.534 25.6639 199.844 25.6639C198.836 25.6639 198.005 25.4072 197.352 24.8939C196.708 24.3712 196.362 23.6246 196.316 22.6539H197.856C197.893 23.1486 198.084 23.5546 198.43 23.8719C198.775 24.1799 199.242 24.3339 199.83 24.3339C200.399 24.3339 200.838 24.1799 201.146 23.8719C201.454 23.5546 201.608 23.1486 201.608 22.6539C201.608 22.0006 201.398 21.5386 200.978 21.2679C200.567 20.9879 199.932 20.8479 199.074 20.8479H198.71V19.5319H199.088C199.844 19.5226 200.418 19.3966 200.81 19.1539C201.211 18.9112 201.412 18.5286 201.412 18.0059C201.412 17.5579 201.267 17.2032 200.978 16.9419C200.688 16.6712 200.278 16.5359 199.746 16.5359C199.223 16.5359 198.817 16.6712 198.528 16.9419C198.238 17.2032 198.066 17.5299 198.01 17.9219H196.456ZM206.05 25.7059C205.761 25.7059 205.518 25.6079 205.322 25.4119C205.126 25.2159 205.028 24.9732 205.028 24.6839C205.028 24.3946 205.126 24.1519 205.322 23.9559C205.518 23.7599 205.761 23.6619 206.05 23.6619C206.33 23.6619 206.568 23.7599 206.764 23.9559C206.96 24.1519 207.058 24.3946 207.058 24.6839C207.058 24.9732 206.96 25.2159 206.764 25.4119C206.568 25.6079 206.33 25.7059 206.05 25.7059ZM209.827 25.7059C209.538 25.7059 209.295 25.6079 209.099 25.4119C208.903 25.2159 208.805 24.9732 208.805 24.6839C208.805 24.3946 208.903 24.1519 209.099 23.9559C209.295 23.7599 209.538 23.6619 209.827 23.6619C210.107 23.6619 210.345 23.7599 210.541 23.9559C210.737 24.1519 210.835 24.3946 210.835 24.6839C210.835 24.9732 210.737 25.2159 210.541 25.4119C210.345 25.6079 210.107 25.7059 209.827 25.7059ZM213.604 25.7059C213.315 25.7059 213.072 25.6079 212.876 25.4119C212.68 25.2159 212.582 24.9732 212.582 24.6839C212.582 24.3946 212.68 24.1519 212.876 23.9559C213.072 23.7599 213.315 23.6619 213.604 23.6619C213.884 23.6619 214.122 23.7599 214.318 23.9559C214.514 24.1519 214.612 24.3946 214.612 24.6839C214.612 24.9732 214.514 25.2159 214.318 25.4119C214.122 25.6079 213.884 25.7059 213.604 25.7059ZM216.499 17.9219C216.555 17.0539 216.886 16.3772 217.493 15.8919C218.109 15.4066 218.893 15.1639 219.845 15.1639C220.498 15.1639 221.063 15.2806 221.539 15.5139C222.015 15.7472 222.374 16.0646 222.617 16.4659C222.86 16.8672 222.981 17.3199 222.981 17.8239C222.981 18.4026 222.827 18.8972 222.519 19.3079C222.211 19.7186 221.842 19.9939 221.413 20.1339V20.1899C221.964 20.3579 222.393 20.6659 222.701 21.1139C223.009 21.5526 223.163 22.1172 223.163 22.8079C223.163 23.3586 223.037 23.8486 222.785 24.2779C222.533 24.7072 222.16 25.0479 221.665 25.2999C221.17 25.5426 220.578 25.6639 219.887 25.6639C218.879 25.6639 218.048 25.4072 217.395 24.8939C216.751 24.3712 216.406 23.6246 216.359 22.6539H217.899C217.936 23.1486 218.128 23.5546 218.473 23.8719C218.818 24.1799 219.285 24.3339 219.873 24.3339C220.442 24.3339 220.881 24.1799 221.189 23.8719C221.497 23.5546 221.651 23.1486 221.651 22.6539C221.651 22.0006 221.441 21.5386 221.021 21.2679C220.61 20.9879 219.976 20.8479 219.117 20.8479H218.753V19.5319H219.131C219.887 19.5226 220.461 19.3966 220.853 19.1539C221.254 18.9112 221.455 18.5286 221.455 18.0059C221.455 17.5579 221.31 17.2032 221.021 16.9419C220.732 16.6712 220.321 16.5359 219.789 16.5359C219.266 16.5359 218.86 16.6712 218.571 16.9419C218.282 17.2032 218.109 17.5299 218.053 17.9219H216.499ZM224.918 21.7439C224.918 20.9506 225.076 20.2552 225.394 19.6579C225.72 19.0512 226.168 18.5846 226.738 18.2579C227.307 17.9312 227.96 17.7679 228.698 17.7679C229.631 17.7679 230.401 17.9919 231.008 18.4399C231.624 18.8786 232.039 19.5086 232.254 20.3299H230.532C230.392 19.9472 230.168 19.6486 229.86 19.4339C229.552 19.2192 229.164 19.1119 228.698 19.1119C228.044 19.1119 227.522 19.3452 227.13 19.8119C226.747 20.2692 226.556 20.9132 226.556 21.7439C226.556 22.5746 226.747 23.2232 227.13 23.6899C227.522 24.1566 228.044 24.3899 228.698 24.3899C229.622 24.3899 230.233 23.9839 230.532 23.1719H232.254C232.03 23.9559 231.61 24.5812 230.994 25.0479C230.378 25.5052 229.612 25.7339 228.698 25.7339C227.96 25.7339 227.307 25.5706 226.738 25.2439C226.168 24.9079 225.72 24.4412 225.394 23.8439C225.076 23.2372 224.918 22.5372 224.918 21.7439Z" fill="#E87721"/>
    <path fill-rule="evenodd" clip-rule="evenodd" d="M119.167 12.2237V10.5785C119.167 10.0849 119.5 9.75586 120 9.75586C120.5 9.75586 120.833 10.0849 120.833 10.5785V12.2237C120.833 12.7173 120.5 13.0463 120 13.0463C119.5 13.0463 119.167 12.7173 119.167 12.2237ZM115 19.6273C115 16.9127 117.25 14.6916 120 14.6916C122.75 14.6916 125 16.9127 125 19.6273C125 22.342 122.75 24.5631 120 24.5631C117.25 24.5631 115 22.342 115 19.6273ZM116.667 19.6273C116.667 21.4371 118.167 22.9178 120 22.9178C121.833 22.9178 123.333 21.4371 123.333 19.6273C123.333 17.8176 121.833 16.3368 120 16.3368C118.167 16.3368 116.667 17.8176 116.667 19.6273ZM120.833 28.6762V27.0309C120.833 26.5373 120.5 26.2083 120 26.2083C119.5 26.2083 119.167 26.5373 119.167 27.0309V28.6762C119.167 29.1697 119.5 29.4988 120 29.4988C120.5 29.4988 120.833 29.1697 120.833 28.6762ZM112.917 13.7867C112.583 13.4577 112.583 12.9641 112.917 12.635C113.25 12.306 113.75 12.306 114.083 12.635L115.25 13.7867C115.583 14.1158 115.583 14.6093 115.25 14.9384C115.167 15.1029 114.917 15.1852 114.667 15.1852C114.417 15.1852 114.25 15.1029 114.083 14.9384L112.917 13.7867ZM127.083 26.6196C127.417 26.2906 127.417 25.797 127.083 25.4679L125.917 24.3163C125.583 23.9872 125.083 23.9872 124.75 24.3163C124.417 24.6453 124.417 25.1389 124.75 25.4679L125.917 26.6196C126.083 26.7841 126.333 26.8664 126.5 26.8664C126.667 26.8664 126.917 26.7841 127.083 26.6196ZM112.5 20.4499H110.833C110.333 20.4499 110 20.1209 110 19.6273C110 19.1338 110.333 18.8047 110.833 18.8047H112.5C113 18.8047 113.333 19.1338 113.333 19.6273C113.333 20.1209 113 20.4499 112.5 20.4499ZM129.167 20.4499C129.667 20.4499 130 20.1209 130 19.6273C130 19.1338 129.667 18.8047 129.167 18.8047H127.5C127 18.8047 126.667 19.1338 126.667 19.6273C126.667 20.1209 127 20.4499 127.5 20.4499H129.167ZM115.25 24.3163C115.583 24.6453 115.583 25.1389 115.25 25.4679L114.083 26.6196C113.917 26.7841 113.667 26.8664 113.5 26.8664C113.333 26.8664 113.083 26.7841 112.917 26.6196C112.583 26.2906 112.583 25.797 112.917 25.4679L114.083 24.3163C114.417 23.9872 115 23.9872 115.25 24.3163ZM124.75 13.7867C124.417 14.1158 124.417 14.6093 124.75 14.9384C124.833 15.1029 125.167 15.1852 125.333 15.1852C125.5 15.1852 125.75 15.1029 125.917 14.9384L127.083 13.7867C127.417 13.4577 127.417 12.9641 127.083 12.635C126.75 12.306 126.25 12.306 125.917 12.635L124.75 13.7867Z" fill="black"/>
    <mask id="mask0_0_2350" style="mask-type:alpha" maskUnits="userSpaceOnUse" x="110" y="9" width="20" height="21">
    <path fill-rule="evenodd" clip-rule="evenodd" d="M119.167 12.2237V10.5785C119.167 10.0849 119.5 9.75586 120 9.75586C120.5 9.75586 120.833 10.0849 120.833 10.5785V12.2237C120.833 12.7173 120.5 13.0463 120 13.0463C119.5 13.0463 119.167 12.7173 119.167 12.2237ZM115 19.6273C115 16.9127 117.25 14.6916 120 14.6916C122.75 14.6916 125 16.9127 125 19.6273C125 22.342 122.75 24.5631 120 24.5631C117.25 24.5631 115 22.342 115 19.6273ZM116.667 19.6273C116.667 21.4371 118.167 22.9178 120 22.9178C121.833 22.9178 123.333 21.4371 123.333 19.6273C123.333 17.8176 121.833 16.3368 120 16.3368C118.167 16.3368 116.667 17.8176 116.667 19.6273ZM120.833 28.6762V27.0309C120.833 26.5373 120.5 26.2083 120 26.2083C119.5 26.2083 119.167 26.5373 119.167 27.0309V28.6762C119.167 29.1697 119.5 29.4988 120 29.4988C120.5 29.4988 120.833 29.1697 120.833 28.6762ZM112.917 13.7867C112.583 13.4577 112.583 12.9641 112.917 12.635C113.25 12.306 113.75 12.306 114.083 12.635L115.25 13.7867C115.583 14.1158 115.583 14.6093 115.25 14.9384C115.167 15.1029 114.917 15.1852 114.667 15.1852C114.417 15.1852 114.25 15.1029 114.083 14.9384L112.917 13.7867ZM127.083 26.6196C127.417 26.2906 127.417 25.797 127.083 25.4679L125.917 24.3163C125.583 23.9872 125.083 23.9872 124.75 24.3163C124.417 24.6453 124.417 25.1389 124.75 25.4679L125.917 26.6196C126.083 26.7841 126.333 26.8664 126.5 26.8664C126.667 26.8664 126.917 26.7841 127.083 26.6196ZM112.5 20.4499H110.833C110.333 20.4499 110 20.1209 110 19.6273C110 19.1338 110.333 18.8047 110.833 18.8047H112.5C113 18.8047 113.333 19.1338 113.333 19.6273C113.333 20.1209 113 20.4499 112.5 20.4499ZM129.167 20.4499C129.667 20.4499 130 20.1209 130 19.6273C130 19.1338 129.667 18.8047 129.167 18.8047H127.5C127 18.8047 126.667 19.1338 126.667 19.6273C126.667 20.1209 127 20.4499 127.5 20.4499H129.167ZM115.25 24.3163C115.583 24.6453 115.583 25.1389 115.25 25.4679L114.083 26.6196C113.917 26.7841 113.667 26.8664 113.5 26.8664C113.333 26.8664 113.083 26.7841 112.917 26.6196C112.583 26.2906 112.583 25.797 112.917 25.4679L114.083 24.3163C114.417 23.9872 115 23.9872 115.25 24.3163ZM124.75 13.7867C124.417 14.1158 124.417 14.6093 124.75 14.9384C124.833 15.1029 125.167 15.1852 125.333 15.1852C125.5 15.1852 125.75 15.1029 125.917 14.9384L127.083 13.7867C127.417 13.4577 127.417 12.9641 127.083 12.635C126.75 12.306 126.25 12.306 125.917 12.635L124.75 13.7867Z" fill="white"/>
    </mask>
    <g mask="url(#mask0_0_2350)">
    <rect x="110" y="9.75586" width="20" height="19.7429" fill="#E87721"/>
    </g>
    <path d="M25.7115 15.8779V22.0799C25.7115 22.8172 25.9028 23.3726 26.2855 23.7459C26.6775 24.1192 27.2188 24.3059 27.9095 24.3059C28.6095 24.3059 29.1508 24.1192 29.5335 23.7459C29.9255 23.3726 30.1215 22.8172 30.1215 22.0799V15.8779H31.7175V22.0519C31.7175 22.8452 31.5448 23.5172 31.1995 24.0679C30.8542 24.6186 30.3922 25.0292 29.8135 25.2999C29.2348 25.5706 28.5955 25.7059 27.8955 25.7059C27.1955 25.7059 26.5562 25.5706 25.9775 25.2999C25.4082 25.0292 24.9555 24.6186 24.6195 24.0679C24.2835 23.5172 24.1155 22.8452 24.1155 22.0519V15.8779H25.7115ZM37.4015 25.7059C36.7482 25.7059 36.1602 25.5939 35.6375 25.3699C35.1148 25.1366 34.7042 24.8099 34.4055 24.3899C34.1068 23.9699 33.9575 23.4799 33.9575 22.9199H35.6655C35.7028 23.3399 35.8662 23.6852 36.1555 23.9559C36.4542 24.2266 36.8695 24.3619 37.4015 24.3619C37.9522 24.3619 38.3815 24.2312 38.6895 23.9699C38.9975 23.6992 39.1515 23.3539 39.1515 22.9339C39.1515 22.6072 39.0535 22.3412 38.8575 22.1359C38.6708 21.9306 38.4328 21.7719 38.1435 21.6599C37.8635 21.5479 37.4715 21.4266 36.9675 21.2959C36.3328 21.1279 35.8148 20.9599 35.4135 20.7919C35.0215 20.6146 34.6855 20.3439 34.4055 19.9799C34.1255 19.6159 33.9855 19.1306 33.9855 18.5239C33.9855 17.9639 34.1255 17.4739 34.4055 17.0539C34.6855 16.6339 35.0775 16.3119 35.5815 16.0879C36.0855 15.8639 36.6688 15.7519 37.3315 15.7519C38.2742 15.7519 39.0442 15.9899 39.6415 16.4659C40.2482 16.9326 40.5842 17.5766 40.6495 18.3979H38.8855C38.8575 18.0432 38.6895 17.7399 38.3815 17.4879C38.0735 17.2359 37.6675 17.1099 37.1635 17.1099C36.7062 17.1099 36.3328 17.2266 36.0435 17.4599C35.7542 17.6932 35.6095 18.0292 35.6095 18.4679C35.6095 18.7666 35.6982 19.0139 35.8755 19.2099C36.0622 19.3966 36.2955 19.5459 36.5755 19.6579C36.8555 19.7699 37.2382 19.8912 37.7235 20.0219C38.3675 20.1992 38.8902 20.3766 39.2915 20.5539C39.7022 20.7312 40.0475 21.0066 40.3275 21.3799C40.6168 21.7439 40.7615 22.2339 40.7615 22.8499C40.7615 23.3446 40.6262 23.8112 40.3555 24.2499C40.0942 24.6886 39.7068 25.0432 39.1935 25.3139C38.6895 25.5752 38.0922 25.7059 37.4015 25.7059ZM46.2227 15.8779C47.2587 15.8779 48.1641 16.0786 48.9387 16.4799C49.7227 16.8719 50.3247 17.4412 50.7447 18.1879C51.1741 18.9252 51.3887 19.7886 51.3887 20.7779C51.3887 21.7672 51.1741 22.6259 50.7447 23.3539C50.3247 24.0819 49.7227 24.6419 48.9387 25.0339C48.1641 25.4166 47.2587 25.6079 46.2227 25.6079H43.0447V15.8779H46.2227ZM46.2227 24.3059C47.3614 24.3059 48.2341 23.9979 48.8407 23.3819C49.4474 22.7659 49.7507 21.8979 49.7507 20.7779C49.7507 19.6486 49.4474 18.7666 48.8407 18.1319C48.2341 17.4972 47.3614 17.1799 46.2227 17.1799H44.6407V24.3059H46.2227Z" fill="#E87721"/>
    <g opacity="0.5">
    <path d="M76.025 19.3829L71.525 23.8829C71.375 24.0329 71.225 24.1079 71 24.1079C70.775 24.1079 70.625 24.0329 70.475 23.8829L65.975 19.3829C65.675 19.0829 65.675 18.6329 65.975 18.3329C66.275 18.0329 66.725 18.0329 67.025 18.3329L71 22.3079L74.975 18.3329C75.275 18.0329 75.725 18.0329 76.025 18.3329C76.325 18.6329 76.325 19.0829 76.025 19.3829Z" fill="black"/>
    <mask id="mask1_0_2350" style="mask-type:alpha" maskUnits="userSpaceOnUse" x="65" y="18" width="12" height="7">
    <path d="M76.025 19.3829L71.525 23.8829C71.375 24.0329 71.225 24.1079 71 24.1079C70.775 24.1079 70.625 24.0329 70.475 23.8829L65.975 19.3829C65.675 19.0829 65.675 18.6329 65.975 18.3329C66.275 18.0329 66.725 18.0329 67.025 18.3329L71 22.3079L74.975 18.3329C75.275 18.0329 75.725 18.0329 76.025 18.3329C76.325 18.6329 76.325 19.0829 76.025 19.3829Z" fill="white"/>
    </mask>
    <g mask="url(#mask1_0_2350)">
    <rect x="62" y="12.1079" width="18" height="18" fill="#B4B7BD"/>
    </g>
    </g>
    </svg>
    