<svg width="86" height="39" viewBox="0 0 86 39" fill="none" xmlns="http://www.w3.org/2000/svg">
    <rect x="1" width="85" height="38" rx="4" stroke="#E87721"/>
    <path fill-rule="evenodd" clip-rule="evenodd" d="M56.1083 12.8617C56.3833 12.5867 56.7499 12.4951 57.1166 12.6784C57.2083 12.6784 57.2999 12.7701 57.3916 12.8617C57.5749 13.0451 57.6666 13.2284 57.6666 13.5034C57.6666 13.7784 57.5749 13.9617 57.3916 14.1451C57.2083 14.3284 57.0249 14.4201 56.7499 14.4201H56.5666C56.4749 14.3284 56.4749 14.3284 56.3833 14.3284C56.3374 14.3284 56.3145 14.3055 56.2916 14.2826C56.2687 14.2596 56.2458 14.2367 56.1999 14.2367L56.1083 14.1451C56.0624 14.0992 56.0395 14.0534 56.0166 14.0076C55.9937 13.9617 55.9708 13.9159 55.9249 13.8701C55.8333 13.7784 55.8333 13.5951 55.8333 13.5034C55.8333 13.4117 55.8333 13.2284 55.9249 13.1367C55.9249 13.0451 56.0166 12.9534 56.1083 12.8617L56.1083 12.8617ZM61.3333 12.5867C60.7833 12.5867 60.4166 12.9534 60.4166 13.5034C60.4166 14.0534 60.7833 14.4201 61.3333 14.4201H73.2499C73.7999 14.4201 74.1666 14.0534 74.1666 13.5034C74.1666 12.9534 73.7999 12.5867 73.2499 12.5867H61.3333ZM61.3333 18.0867H73.2499C73.7999 18.0867 74.1666 18.4534 74.1666 19.0034C74.1666 19.5534 73.7999 19.9201 73.2499 19.9201H61.3333C60.7833 19.9201 60.4166 19.5534 60.4166 19.0034C60.4166 18.4534 60.7833 18.0867 61.3333 18.0867ZM73.2499 23.5867H61.3333C60.7833 23.5867 60.4166 23.9534 60.4166 24.5034C60.4166 25.0534 60.7833 25.4201 61.3333 25.4201H73.2499C73.7999 25.4201 74.1666 25.0534 74.1666 24.5034C74.1666 23.9534 73.7999 23.5867 73.2499 23.5867ZM57.5749 18.6367C57.5749 18.5909 57.552 18.568 57.5291 18.5451C57.5062 18.5221 57.4833 18.4992 57.4833 18.4534C57.4833 18.3617 57.3916 18.3617 57.3916 18.3617C57.1166 18.0867 56.7499 17.9951 56.3833 18.1784C56.3374 18.2242 56.2916 18.2471 56.2458 18.2701C56.1999 18.293 56.1541 18.3159 56.1083 18.3617L56.0166 18.4534C56.0166 18.4992 55.9937 18.5221 55.9708 18.5451C55.9478 18.568 55.9249 18.5909 55.9249 18.6367C55.9249 18.6757 55.9249 18.6981 55.9179 18.718C55.9084 18.7449 55.886 18.7673 55.8333 18.8201V19.0034C55.8333 19.2784 55.9249 19.4617 56.1083 19.6451C56.2916 19.8284 56.4749 19.9201 56.7499 19.9201C57.0249 19.9201 57.2083 19.8284 57.3916 19.6451C57.5749 19.4617 57.6666 19.2784 57.6666 19.0034V18.8201C57.6666 18.7742 57.6437 18.7513 57.6208 18.7284C57.5978 18.7055 57.5749 18.6826 57.5749 18.6367ZM55.9249 24.1367C55.9249 24.0451 56.0166 23.9534 56.1083 23.8617C56.4749 23.4951 57.0249 23.4951 57.3916 23.8617C57.5749 24.0451 57.6666 24.2284 57.6666 24.5034C57.6666 24.7784 57.5749 24.9617 57.3916 25.1451C57.2083 25.3284 57.0249 25.4201 56.7499 25.4201C56.4749 25.4201 56.2916 25.3284 56.1083 25.1451C55.9249 24.9617 55.8333 24.7784 55.8333 24.5034C55.8333 24.4117 55.8333 24.2284 55.9249 24.1367Z" fill="black"/>
    <mask id="mask0_0_6395" style="mask-type:alpha" maskUnits="userSpaceOnUse" x="55" y="12" width="20" height="14">
    <path fill-rule="evenodd" clip-rule="evenodd" d="M56.1083 12.8617C56.3833 12.5867 56.7499 12.4951 57.1166 12.6784C57.2083 12.6784 57.2999 12.7701 57.3916 12.8617C57.5749 13.0451 57.6666 13.2284 57.6666 13.5034C57.6666 13.7784 57.5749 13.9617 57.3916 14.1451C57.2083 14.3284 57.0249 14.4201 56.7499 14.4201H56.5666C56.4749 14.3284 56.4749 14.3284 56.3833 14.3284C56.3374 14.3284 56.3145 14.3055 56.2916 14.2826C56.2687 14.2596 56.2458 14.2367 56.1999 14.2367L56.1083 14.1451C56.0624 14.0992 56.0395 14.0534 56.0166 14.0076C55.9937 13.9617 55.9708 13.9159 55.9249 13.8701C55.8333 13.7784 55.8333 13.5951 55.8333 13.5034C55.8333 13.4117 55.8333 13.2284 55.9249 13.1367C55.9249 13.0451 56.0166 12.9534 56.1083 12.8617L56.1083 12.8617ZM61.3333 12.5867C60.7833 12.5867 60.4166 12.9534 60.4166 13.5034C60.4166 14.0534 60.7833 14.4201 61.3333 14.4201H73.2499C73.7999 14.4201 74.1666 14.0534 74.1666 13.5034C74.1666 12.9534 73.7999 12.5867 73.2499 12.5867H61.3333ZM61.3333 18.0867H73.2499C73.7999 18.0867 74.1666 18.4534 74.1666 19.0034C74.1666 19.5534 73.7999 19.9201 73.2499 19.9201H61.3333C60.7833 19.9201 60.4166 19.5534 60.4166 19.0034C60.4166 18.4534 60.7833 18.0867 61.3333 18.0867ZM73.2499 23.5867H61.3333C60.7833 23.5867 60.4166 23.9534 60.4166 24.5034C60.4166 25.0534 60.7833 25.4201 61.3333 25.4201H73.2499C73.7999 25.4201 74.1666 25.0534 74.1666 24.5034C74.1666 23.9534 73.7999 23.5867 73.2499 23.5867ZM57.5749 18.6367C57.5749 18.5909 57.552 18.568 57.5291 18.5451C57.5062 18.5221 57.4833 18.4992 57.4833 18.4534C57.4833 18.3617 57.3916 18.3617 57.3916 18.3617C57.1166 18.0867 56.7499 17.9951 56.3833 18.1784C56.3374 18.2242 56.2916 18.2471 56.2458 18.2701C56.1999 18.293 56.1541 18.3159 56.1083 18.3617L56.0166 18.4534C56.0166 18.4992 55.9937 18.5221 55.9708 18.5451C55.9478 18.568 55.9249 18.5909 55.9249 18.6367C55.9249 18.6757 55.9249 18.6981 55.9179 18.718C55.9084 18.7449 55.886 18.7673 55.8333 18.8201V19.0034C55.8333 19.2784 55.9249 19.4617 56.1083 19.6451C56.2916 19.8284 56.4749 19.9201 56.7499 19.9201C57.0249 19.9201 57.2083 19.8284 57.3916 19.6451C57.5749 19.4617 57.6666 19.2784 57.6666 19.0034V18.8201C57.6666 18.7742 57.6437 18.7513 57.6208 18.7284C57.5978 18.7055 57.5749 18.6826 57.5749 18.6367ZM55.9249 24.1367C55.9249 24.0451 56.0166 23.9534 56.1083 23.8617C56.4749 23.4951 57.0249 23.4951 57.3916 23.8617C57.5749 24.0451 57.6666 24.2284 57.6666 24.5034C57.6666 24.7784 57.5749 24.9617 57.3916 25.1451C57.2083 25.3284 57.0249 25.4201 56.7499 25.4201C56.4749 25.4201 56.2916 25.3284 56.1083 25.1451C55.9249 24.9617 55.8333 24.7784 55.8333 24.5034C55.8333 24.4117 55.8333 24.2284 55.9249 24.1367Z" fill="white"/>
    </mask>
    <g mask="url(#mask0_0_6395)">
    <rect x="54" y="8" width="22" height="22" fill="#E87721"/>
    </g>
    <path d="M1 4C1 1.79086 2.79086 0 5 0H45V38H5C2.79086 38 1 36.2091 1 34V4Z" fill="#FF9F43" fill-opacity="0.2" stroke="#E87721"/>
    <path fill-rule="evenodd" clip-rule="evenodd" d="M14.7499 9.83301H21.1666C21.7166 9.83301 22.0833 10.1997 22.0833 10.7497V17.1663C22.0833 17.7163 21.7166 18.083 21.1666 18.083H14.7499C14.1999 18.083 13.8333 17.7163 13.8333 17.1663V10.7497C13.8333 10.1997 14.1999 9.83301 14.7499 9.83301ZM15.6666 16.2497H20.2499V11.6663H15.6666V16.2497ZM31.2499 9.83301H24.8333C24.2833 9.83301 23.9166 10.1997 23.9166 10.7497V17.1663C23.9166 17.7163 24.2833 18.083 24.8333 18.083H31.2499C31.7999 18.083 32.1666 17.7163 32.1666 17.1663V10.7497C32.1666 10.1997 31.7999 9.83301 31.2499 9.83301ZM25.7499 16.2497H30.3333V11.6663H25.7499V16.2497ZM31.2499 19.9163H24.8333C24.2833 19.9163 23.9166 20.283 23.9166 20.833V27.2497C23.9166 27.7997 24.2833 28.1663 24.8333 28.1663H31.2499C31.7999 28.1663 32.1666 27.7997 32.1666 27.2497V20.833C32.1666 20.283 31.7999 19.9163 31.2499 19.9163ZM25.7499 26.333H30.3333V21.7497H25.7499V26.333ZM21.1666 19.9163H14.7499C14.1999 19.9163 13.8333 20.283 13.8333 20.833V27.2497C13.8333 27.7997 14.1999 28.1663 14.7499 28.1663H21.1666C21.7166 28.1663 22.0833 27.7997 22.0833 27.2497V20.833C22.0833 20.283 21.7166 19.9163 21.1666 19.9163ZM15.6666 26.333H20.2499V21.7497H15.6666V26.333Z" fill="black"/>
    <mask id="mask1_0_6395" style="mask-type:alpha" maskUnits="userSpaceOnUse" x="13" y="9" width="20" height="20">
    <path fill-rule="evenodd" clip-rule="evenodd" d="M14.7499 9.83301H21.1666C21.7166 9.83301 22.0833 10.1997 22.0833 10.7497V17.1663C22.0833 17.7163 21.7166 18.083 21.1666 18.083H14.7499C14.1999 18.083 13.8333 17.7163 13.8333 17.1663V10.7497C13.8333 10.1997 14.1999 9.83301 14.7499 9.83301ZM15.6666 16.2497H20.2499V11.6663H15.6666V16.2497ZM31.2499 9.83301H24.8333C24.2833 9.83301 23.9166 10.1997 23.9166 10.7497V17.1663C23.9166 17.7163 24.2833 18.083 24.8333 18.083H31.2499C31.7999 18.083 32.1666 17.7163 32.1666 17.1663V10.7497C32.1666 10.1997 31.7999 9.83301 31.2499 9.83301ZM25.7499 16.2497H30.3333V11.6663H25.7499V16.2497ZM31.2499 19.9163H24.8333C24.2833 19.9163 23.9166 20.283 23.9166 20.833V27.2497C23.9166 27.7997 24.2833 28.1663 24.8333 28.1663H31.2499C31.7999 28.1663 32.1666 27.7997 32.1666 27.2497V20.833C32.1666 20.283 31.7999 19.9163 31.2499 19.9163ZM25.7499 26.333H30.3333V21.7497H25.7499V26.333ZM21.1666 19.9163H14.7499C14.1999 19.9163 13.8333 20.283 13.8333 20.833V27.2497C13.8333 27.7997 14.1999 28.1663 14.7499 28.1663H21.1666C21.7166 28.1663 22.0833 27.7997 22.0833 27.2497V20.833C22.0833 20.283 21.7166 19.9163 21.1666 19.9163ZM15.6666 26.333H20.2499V21.7497H15.6666V26.333Z" fill="white"/>
    </mask>
    <g mask="url(#mask1_0_6395)">
    <rect x="12" y="8" width="22" height="22" fill="#E87721"/>
    </g>
    </svg>
    