<svg width="488" height="315" viewBox="0 0 488 315" fill="none" xmlns="http://www.w3.org/2000/svg">
    <g filter="url(#filter0_d_753_64887)">
    <rect x="24" y="20" width="440" height="267" rx="6" fill="#303540"/>
    </g>
    <path opacity="0.01" d="M24 219H464V282C464 284.761 461.761 287 459 287H29C26.2386 287 24 284.761 24 282V219Z" fill="#303540"/>
    <path d="M370.071 237C370.071 234.239 372.309 232 375.071 232H445.071C447.832 232 450.071 234.239 450.071 237V268C450.071 270.761 447.832 273 445.071 273H375.071C372.309 273 370.071 270.761 370.071 268V237Z" fill="#E87721"/>
    <path d="M396.405 257.098C395.751 257.098 395.163 256.986 394.641 256.762C394.118 256.529 393.707 256.202 393.409 255.782C393.11 255.362 392.961 254.872 392.961 254.312H394.669C394.706 254.732 394.869 255.077 395.159 255.348C395.457 255.619 395.873 255.754 396.405 255.754C396.955 255.754 397.385 255.623 397.693 255.362C398.001 255.091 398.155 254.746 398.155 254.326C398.155 253.999 398.057 253.733 397.861 253.528C397.674 253.323 397.436 253.164 397.147 253.052C396.867 252.94 396.475 252.819 395.971 252.688C395.336 252.52 394.818 252.352 394.417 252.184C394.025 252.007 393.689 251.736 393.409 251.372C393.129 251.008 392.989 250.523 392.989 249.916C392.989 249.356 393.129 248.866 393.409 248.446C393.689 248.026 394.081 247.704 394.585 247.48C395.089 247.256 395.672 247.144 396.335 247.144C397.277 247.144 398.047 247.382 398.645 247.858C399.251 248.325 399.587 248.969 399.653 249.79H397.889C397.861 249.435 397.693 249.132 397.385 248.88C397.077 248.628 396.671 248.502 396.167 248.502C395.709 248.502 395.336 248.619 395.047 248.852C394.757 249.085 394.613 249.421 394.613 249.86C394.613 250.159 394.701 250.406 394.879 250.602C395.065 250.789 395.299 250.938 395.579 251.05C395.859 251.162 396.241 251.283 396.727 251.414C397.371 251.591 397.893 251.769 398.295 251.946C398.705 252.123 399.051 252.399 399.331 252.772C399.62 253.136 399.765 253.626 399.765 254.242C399.765 254.737 399.629 255.203 399.359 255.642C399.097 256.081 398.71 256.435 398.197 256.706C397.693 256.967 397.095 257.098 396.405 257.098ZM401.516 253.108C401.516 252.333 401.674 251.647 401.992 251.05C402.318 250.453 402.757 249.991 403.308 249.664C403.868 249.328 404.484 249.16 405.156 249.16C405.762 249.16 406.29 249.281 406.738 249.524C407.195 249.757 407.559 250.051 407.83 250.406V249.286H409.44V257H407.83V255.852C407.559 256.216 407.19 256.519 406.724 256.762C406.257 257.005 405.725 257.126 405.128 257.126C404.465 257.126 403.858 256.958 403.308 256.622C402.757 256.277 402.318 255.801 401.992 255.194C401.674 254.578 401.516 253.883 401.516 253.108ZM407.83 253.136C407.83 252.604 407.718 252.142 407.494 251.75C407.279 251.358 406.994 251.059 406.64 250.854C406.285 250.649 405.902 250.546 405.492 250.546C405.081 250.546 404.698 250.649 404.344 250.854C403.989 251.05 403.7 251.344 403.476 251.736C403.261 252.119 403.154 252.576 403.154 253.108C403.154 253.64 403.261 254.107 403.476 254.508C403.7 254.909 403.989 255.217 404.344 255.432C404.708 255.637 405.09 255.74 405.492 255.74C405.902 255.74 406.285 255.637 406.64 255.432C406.994 255.227 407.279 254.928 407.494 254.536C407.718 254.135 407.83 253.668 407.83 253.136ZM414.918 255.572L417.102 249.286H418.796L415.856 257H413.952L411.026 249.286H412.734L414.918 255.572ZM427.472 252.954C427.472 253.243 427.454 253.505 427.416 253.738H421.522C421.569 254.354 421.798 254.849 422.208 255.222C422.619 255.595 423.123 255.782 423.72 255.782C424.579 255.782 425.186 255.423 425.54 254.704H427.262C427.029 255.413 426.604 255.997 425.988 256.454C425.382 256.902 424.626 257.126 423.72 257.126C422.983 257.126 422.32 256.963 421.732 256.636C421.154 256.3 420.696 255.833 420.36 255.236C420.034 254.629 419.87 253.929 419.87 253.136C419.87 252.343 420.029 251.647 420.346 251.05C420.673 250.443 421.126 249.977 421.704 249.65C422.292 249.323 422.964 249.16 423.72 249.16C424.448 249.16 425.097 249.319 425.666 249.636C426.236 249.953 426.679 250.401 426.996 250.98C427.314 251.549 427.472 252.207 427.472 252.954ZM425.806 252.45C425.797 251.862 425.587 251.391 425.176 251.036C424.766 250.681 424.257 250.504 423.65 250.504C423.1 250.504 422.628 250.681 422.236 251.036C421.844 251.381 421.611 251.853 421.536 252.45H425.806Z" fill="white"/>
    <path d="M251.071 237C251.071 234.239 253.309 232 256.071 232H343.071C345.832 232 348.071 234.239 348.071 237V268C348.071 270.761 345.832 273 343.071 273H256.071C253.309 273 251.071 270.761 251.071 268V237Z" fill="#82868B"/>
    <path d="M274.021 252.114C274.021 251.162 274.241 250.308 274.679 249.552C275.127 248.796 275.729 248.208 276.485 247.788C277.251 247.359 278.086 247.144 278.991 247.144C280.027 247.144 280.947 247.401 281.749 247.914C282.561 248.418 283.149 249.137 283.513 250.07H281.595C281.343 249.557 280.993 249.174 280.545 248.922C280.097 248.67 279.579 248.544 278.991 248.544C278.347 248.544 277.773 248.689 277.269 248.978C276.765 249.267 276.369 249.683 276.079 250.224C275.799 250.765 275.659 251.395 275.659 252.114C275.659 252.833 275.799 253.463 276.079 254.004C276.369 254.545 276.765 254.965 277.269 255.264C277.773 255.553 278.347 255.698 278.991 255.698C279.579 255.698 280.097 255.572 280.545 255.32C280.993 255.068 281.343 254.685 281.595 254.172H283.513C283.149 255.105 282.561 255.824 281.749 256.328C280.947 256.832 280.027 257.084 278.991 257.084C278.077 257.084 277.241 256.874 276.485 256.454C275.729 256.025 275.127 255.432 274.679 254.676C274.241 253.92 274.021 253.066 274.021 252.114ZM285.25 253.108C285.25 252.333 285.408 251.647 285.726 251.05C286.052 250.453 286.491 249.991 287.042 249.664C287.602 249.328 288.218 249.16 288.89 249.16C289.496 249.16 290.024 249.281 290.472 249.524C290.929 249.757 291.293 250.051 291.564 250.406V249.286H293.174V257H291.564V255.852C291.293 256.216 290.924 256.519 290.458 256.762C289.991 257.005 289.459 257.126 288.862 257.126C288.199 257.126 287.592 256.958 287.042 256.622C286.491 256.277 286.052 255.801 285.726 255.194C285.408 254.578 285.25 253.883 285.25 253.108ZM291.564 253.136C291.564 252.604 291.452 252.142 291.228 251.75C291.013 251.358 290.728 251.059 290.374 250.854C290.019 250.649 289.636 250.546 289.226 250.546C288.815 250.546 288.432 250.649 288.078 250.854C287.723 251.05 287.434 251.344 287.21 251.736C286.995 252.119 286.888 252.576 286.888 253.108C286.888 253.64 286.995 254.107 287.21 254.508C287.434 254.909 287.723 255.217 288.078 255.432C288.442 255.637 288.824 255.74 289.226 255.74C289.636 255.74 290.019 255.637 290.374 255.432C290.728 255.227 291.013 254.928 291.228 254.536C291.452 254.135 291.564 253.668 291.564 253.136ZM299.562 249.16C300.168 249.16 300.71 249.286 301.186 249.538C301.671 249.79 302.049 250.163 302.32 250.658C302.59 251.153 302.726 251.75 302.726 252.45V257H301.144V252.688C301.144 251.997 300.971 251.47 300.626 251.106C300.28 250.733 299.809 250.546 299.212 250.546C298.614 250.546 298.138 250.733 297.784 251.106C297.438 251.47 297.266 251.997 297.266 252.688V257H295.67V249.286H297.266V250.168C297.527 249.851 297.858 249.603 298.26 249.426C298.67 249.249 299.104 249.16 299.562 249.16ZM304.63 253.136C304.63 252.343 304.788 251.647 305.106 251.05C305.432 250.443 305.88 249.977 306.45 249.65C307.019 249.323 307.672 249.16 308.41 249.16C309.343 249.16 310.113 249.384 310.72 249.832C311.336 250.271 311.751 250.901 311.966 251.722H310.244C310.104 251.339 309.88 251.041 309.572 250.826C309.264 250.611 308.876 250.504 308.41 250.504C307.756 250.504 307.234 250.737 306.842 251.204C306.459 251.661 306.268 252.305 306.268 253.136C306.268 253.967 306.459 254.615 306.842 255.082C307.234 255.549 307.756 255.782 308.41 255.782C309.334 255.782 309.945 255.376 310.244 254.564H311.966C311.742 255.348 311.322 255.973 310.706 256.44C310.09 256.897 309.324 257.126 308.41 257.126C307.672 257.126 307.019 256.963 306.45 256.636C305.88 256.3 305.432 255.833 305.106 255.236C304.788 254.629 304.63 253.929 304.63 253.136ZM321.026 252.954C321.026 253.243 321.007 253.505 320.97 253.738H315.076C315.123 254.354 315.351 254.849 315.762 255.222C316.173 255.595 316.677 255.782 317.274 255.782C318.133 255.782 318.739 255.423 319.094 254.704H320.816C320.583 255.413 320.158 255.997 319.542 256.454C318.935 256.902 318.179 257.126 317.274 257.126C316.537 257.126 315.874 256.963 315.286 256.636C314.707 256.3 314.25 255.833 313.914 255.236C313.587 254.629 313.424 253.929 313.424 253.136C313.424 252.343 313.583 251.647 313.9 251.05C314.227 250.443 314.679 249.977 315.258 249.65C315.846 249.323 316.518 249.16 317.274 249.16C318.002 249.16 318.651 249.319 319.22 249.636C319.789 249.953 320.233 250.401 320.55 250.98C320.867 251.549 321.026 252.207 321.026 252.954ZM319.36 252.45C319.351 251.862 319.141 251.391 318.73 251.036C318.319 250.681 317.811 250.504 317.204 250.504C316.653 250.504 316.182 250.681 315.79 251.036C315.398 251.381 315.165 251.853 315.09 252.45H319.36ZM324.593 246.64V257H322.997V246.64H324.593Z" fill="white"/>
    <path d="M44 237C44 234.239 46.2386 232 49 232H135C137.761 232 140 234.239 140 237V268C140 270.761 137.761 273 135 273H49C46.2386 273 44 270.761 44 268V237Z" fill="#EA5455"/>
    <path d="M72.27 257L70.03 253.108H68.812V257H67.216V247.27H70.576C71.3227 247.27 71.9527 247.401 72.466 247.662C72.9887 247.923 73.376 248.273 73.628 248.712C73.8893 249.151 74.02 249.641 74.02 250.182C74.02 250.817 73.8333 251.395 73.46 251.918C73.096 252.431 72.5313 252.781 71.766 252.968L74.174 257H72.27ZM68.812 251.834H70.576C71.1733 251.834 71.6213 251.685 71.92 251.386C72.228 251.087 72.382 250.686 72.382 250.182C72.382 249.678 72.2327 249.286 71.934 249.006C71.6353 248.717 71.1827 248.572 70.576 248.572H68.812V251.834ZM83.5317 252.954C83.5317 253.243 83.5131 253.505 83.4757 253.738H77.5817C77.6284 254.354 77.8571 254.849 78.2677 255.222C78.6784 255.595 79.1824 255.782 79.7797 255.782C80.6384 255.782 81.2451 255.423 81.5997 254.704H83.3217C83.0884 255.413 82.6637 255.997 82.0477 256.454C81.4411 256.902 80.6851 257.126 79.7797 257.126C79.0424 257.126 78.3797 256.963 77.7917 256.636C77.2131 256.3 76.7557 255.833 76.4197 255.236C76.0931 254.629 75.9297 253.929 75.9297 253.136C75.9297 252.343 76.0884 251.647 76.4057 251.05C76.7324 250.443 77.1851 249.977 77.7637 249.65C78.3517 249.323 79.0237 249.16 79.7797 249.16C80.5077 249.16 81.1564 249.319 81.7257 249.636C82.2951 249.953 82.7384 250.401 83.0557 250.98C83.3731 251.549 83.5317 252.207 83.5317 252.954ZM81.8657 252.45C81.8564 251.862 81.6464 251.391 81.2357 251.036C80.8251 250.681 80.3164 250.504 79.7097 250.504C79.1591 250.504 78.6877 250.681 78.2957 251.036C77.9037 251.381 77.6704 251.853 77.5957 252.45H81.8657ZM94.8403 249.16C95.447 249.16 95.9883 249.286 96.4643 249.538C96.9497 249.79 97.3277 250.163 97.5983 250.658C97.8783 251.153 98.0183 251.75 98.0183 252.45V257H96.4363V252.688C96.4363 251.997 96.2637 251.47 95.9183 251.106C95.573 250.733 95.1017 250.546 94.5043 250.546C93.907 250.546 93.431 250.733 93.0763 251.106C92.731 251.47 92.5583 251.997 92.5583 252.688V257H90.9763V252.688C90.9763 251.997 90.8037 251.47 90.4583 251.106C90.113 250.733 89.6417 250.546 89.0443 250.546C88.447 250.546 87.971 250.733 87.6163 251.106C87.271 251.47 87.0983 251.997 87.0983 252.688V257H85.5023V249.286H87.0983V250.168C87.3597 249.851 87.691 249.603 88.0923 249.426C88.4937 249.249 88.923 249.16 89.3803 249.16C89.9963 249.16 90.547 249.291 91.0323 249.552C91.5177 249.813 91.891 250.191 92.1523 250.686C92.3857 250.219 92.7497 249.851 93.2443 249.58C93.739 249.3 94.271 249.16 94.8403 249.16ZM103.795 257.126C103.067 257.126 102.409 256.963 101.821 256.636C101.233 256.3 100.771 255.833 100.435 255.236C100.099 254.629 99.9312 253.929 99.9312 253.136C99.9312 252.352 100.104 251.657 100.449 251.05C100.795 250.443 101.266 249.977 101.863 249.65C102.461 249.323 103.128 249.16 103.865 249.16C104.603 249.16 105.27 249.323 105.867 249.65C106.465 249.977 106.936 250.443 107.281 251.05C107.627 251.657 107.799 252.352 107.799 253.136C107.799 253.92 107.622 254.615 107.267 255.222C106.913 255.829 106.427 256.3 105.811 256.636C105.205 256.963 104.533 257.126 103.795 257.126ZM103.795 255.74C104.206 255.74 104.589 255.642 104.943 255.446C105.307 255.25 105.601 254.956 105.825 254.564C106.049 254.172 106.161 253.696 106.161 253.136C106.161 252.576 106.054 252.105 105.839 251.722C105.625 251.33 105.34 251.036 104.985 250.84C104.631 250.644 104.248 250.546 103.837 250.546C103.427 250.546 103.044 250.644 102.689 250.84C102.344 251.036 102.069 251.33 101.863 251.722C101.658 252.105 101.555 252.576 101.555 253.136C101.555 253.967 101.765 254.611 102.185 255.068C102.615 255.516 103.151 255.74 103.795 255.74ZM112.759 255.572L114.943 249.286H116.637L113.697 257H111.793L108.867 249.286H110.575L112.759 255.572ZM125.313 252.954C125.313 253.243 125.295 253.505 125.257 253.738H119.363C119.41 254.354 119.639 254.849 120.049 255.222C120.46 255.595 120.964 255.782 121.561 255.782C122.42 255.782 123.027 255.423 123.381 254.704H125.103C124.87 255.413 124.445 255.997 123.829 256.454C123.223 256.902 122.467 257.126 121.561 257.126C120.824 257.126 120.161 256.963 119.573 256.636C118.995 256.3 118.537 255.833 118.201 255.236C117.875 254.629 117.711 253.929 117.711 253.136C117.711 252.343 117.87 251.647 118.187 251.05C118.514 250.443 118.967 249.977 119.545 249.65C120.133 249.323 120.805 249.16 121.561 249.16C122.289 249.16 122.938 249.319 123.507 249.636C124.077 249.953 124.52 250.401 124.837 250.98C125.155 251.549 125.313 252.207 125.313 252.954ZM123.647 252.45C123.638 251.862 123.428 251.391 123.017 251.036C122.607 250.681 122.098 250.504 121.491 250.504C120.941 250.504 120.469 250.681 120.077 251.036C119.685 251.381 119.452 251.853 119.377 252.45H123.647Z" fill="white"/>
    <path d="M23.7853 219.5H463.785" stroke="#3B4253" stroke-linecap="square"/>
    <path d="M63.072 93.636V94.524H60.792V102H59.7V94.524H57.408V93.636H63.072ZM70.4162 98.46C70.4162 98.668 70.4042 98.888 70.3802 99.12H65.1242C65.1642 99.768 65.3842 100.276 65.7842 100.644C66.1922 101.004 66.6842 101.184 67.2602 101.184C67.7322 101.184 68.1242 101.076 68.4362 100.86C68.7562 100.636 68.9802 100.34 69.1082 99.972H70.2842C70.1082 100.604 69.7562 101.12 69.2282 101.52C68.7002 101.912 68.0442 102.108 67.2602 102.108C66.6362 102.108 66.0762 101.968 65.5802 101.688C65.0922 101.408 64.7082 101.012 64.4282 100.5C64.1482 99.98 64.0082 99.38 64.0082 98.7C64.0082 98.02 64.1442 97.424 64.4162 96.912C64.6882 96.4 65.0682 96.008 65.5562 95.736C66.0522 95.456 66.6202 95.316 67.2602 95.316C67.8842 95.316 68.4362 95.452 68.9162 95.724C69.3962 95.996 69.7642 96.372 70.0202 96.852C70.2842 97.324 70.4162 97.86 70.4162 98.46ZM69.2882 98.232C69.2882 97.816 69.1962 97.46 69.0122 97.164C68.8282 96.86 68.5762 96.632 68.2562 96.48C67.9442 96.32 67.5962 96.24 67.2122 96.24C66.6602 96.24 66.1882 96.416 65.7962 96.768C65.4122 97.12 65.1922 97.608 65.1362 98.232H69.2882ZM72.9496 93.12V102H71.8576V93.12H72.9496ZM75.9027 93.12V102H74.8107V93.12H75.9027ZM86.7951 95.424V102H85.7031V101.028C85.4951 101.364 85.2031 101.628 84.8271 101.82C84.4591 102.004 84.0511 102.096 83.6031 102.096C83.0911 102.096 82.6311 101.992 82.2231 101.784C81.8151 101.568 81.4911 101.248 81.2511 100.824C81.0191 100.4 80.9031 99.884 80.9031 99.276V95.424H81.9831V99.132C81.9831 99.78 82.1471 100.28 82.4751 100.632C82.8031 100.976 83.2511 101.148 83.8191 101.148C84.4031 101.148 84.8631 100.968 85.1991 100.608C85.5351 100.248 85.7031 99.724 85.7031 99.036V95.424H86.7951ZM90.9668 102.108C90.4628 102.108 90.0108 102.024 89.6108 101.856C89.2108 101.68 88.8948 101.44 88.6628 101.136C88.4308 100.824 88.3028 100.468 88.2788 100.068H89.4068C89.4388 100.396 89.5908 100.664 89.8628 100.872C90.1428 101.08 90.5068 101.184 90.9548 101.184C91.3708 101.184 91.6988 101.092 91.9388 100.908C92.1788 100.724 92.2988 100.492 92.2988 100.212C92.2988 99.924 92.1708 99.712 91.9148 99.576C91.6588 99.432 91.2628 99.292 90.7268 99.156C90.2388 99.028 89.8388 98.9 89.5268 98.772C89.2228 98.636 88.9588 98.44 88.7348 98.184C88.5188 97.92 88.4108 97.576 88.4108 97.152C88.4108 96.816 88.5108 96.508 88.7108 96.228C88.9108 95.948 89.1948 95.728 89.5628 95.568C89.9308 95.4 90.3508 95.316 90.8228 95.316C91.5508 95.316 92.1388 95.5 92.5868 95.868C93.0348 96.236 93.2748 96.74 93.3068 97.38H92.2148C92.1908 97.036 92.0508 96.76 91.7948 96.552C91.5468 96.344 91.2108 96.24 90.7868 96.24C90.3948 96.24 90.0828 96.324 89.8508 96.492C89.6188 96.66 89.5028 96.88 89.5028 97.152C89.5028 97.368 89.5708 97.548 89.7068 97.692C89.8508 97.828 90.0268 97.94 90.2348 98.028C90.4508 98.108 90.7468 98.2 91.1228 98.304C91.5948 98.432 91.9788 98.56 92.2748 98.688C92.5708 98.808 92.8228 98.992 93.0308 99.24C93.2468 99.488 93.3588 99.812 93.3668 100.212C93.3668 100.572 93.2668 100.896 93.0668 101.184C92.8668 101.472 92.5828 101.7 92.2148 101.868C91.8548 102.028 91.4388 102.108 90.9668 102.108ZM103.772 95.424L99.8116 105.096H98.6836L99.9796 101.928L97.3276 95.424H98.5396L100.604 100.752L102.644 95.424H103.772ZM107.737 102.108C107.121 102.108 106.561 101.968 106.057 101.688C105.561 101.408 105.169 101.012 104.881 100.5C104.601 99.98 104.461 99.38 104.461 98.7C104.461 98.028 104.605 97.436 104.893 96.924C105.189 96.404 105.589 96.008 106.093 95.736C106.597 95.456 107.161 95.316 107.785 95.316C108.409 95.316 108.973 95.456 109.477 95.736C109.981 96.008 110.377 96.4 110.665 96.912C110.961 97.424 111.109 98.02 111.109 98.7C111.109 99.38 110.957 99.98 110.653 100.5C110.357 101.012 109.953 101.408 109.441 101.688C108.929 101.968 108.361 102.108 107.737 102.108ZM107.737 101.148C108.129 101.148 108.497 101.056 108.841 100.872C109.185 100.688 109.461 100.412 109.669 100.044C109.885 99.676 109.993 99.228 109.993 98.7C109.993 98.172 109.889 97.724 109.681 97.356C109.473 96.988 109.201 96.716 108.865 96.54C108.529 96.356 108.165 96.264 107.773 96.264C107.373 96.264 107.005 96.356 106.669 96.54C106.341 96.716 106.077 96.988 105.877 97.356C105.677 97.724 105.577 98.172 105.577 98.7C105.577 99.236 105.673 99.688 105.865 100.056C106.065 100.424 106.329 100.7 106.657 100.884C106.985 101.06 107.345 101.148 107.737 101.148ZM118.377 95.424V102H117.285V101.028C117.077 101.364 116.785 101.628 116.409 101.82C116.041 102.004 115.633 102.096 115.185 102.096C114.673 102.096 114.213 101.992 113.805 101.784C113.397 101.568 113.073 101.248 112.833 100.824C112.601 100.4 112.485 99.884 112.485 99.276V95.424H113.565V99.132C113.565 99.78 113.729 100.28 114.057 100.632C114.385 100.976 114.833 101.148 115.401 101.148C115.985 101.148 116.445 100.968 116.781 100.608C117.117 100.248 117.285 99.724 117.285 99.036V95.424H118.377ZM121.313 96.492C121.505 96.116 121.777 95.824 122.129 95.616C122.489 95.408 122.925 95.304 123.437 95.304V96.432H123.149C121.925 96.432 121.313 97.096 121.313 98.424V102H120.221V95.424H121.313V96.492ZM128.989 96.492C129.181 96.116 129.453 95.824 129.805 95.616C130.165 95.408 130.601 95.304 131.113 95.304V96.432H130.825C129.601 96.432 128.989 97.096 128.989 98.424V102H127.897V95.424H128.989V96.492ZM131.965 98.688C131.965 98.016 132.101 97.428 132.373 96.924C132.645 96.412 133.017 96.016 133.489 95.736C133.969 95.456 134.501 95.316 135.085 95.316C135.661 95.316 136.161 95.44 136.585 95.688C137.009 95.936 137.325 96.248 137.533 96.624V95.424H138.637V102H137.533V100.776C137.317 101.16 136.993 101.48 136.561 101.736C136.137 101.984 135.641 102.108 135.073 102.108C134.489 102.108 133.961 101.964 133.489 101.676C133.017 101.388 132.645 100.984 132.373 100.464C132.101 99.944 131.965 99.352 131.965 98.688ZM137.533 98.7C137.533 98.204 137.433 97.772 137.233 97.404C137.033 97.036 136.761 96.756 136.417 96.564C136.081 96.364 135.709 96.264 135.301 96.264C134.893 96.264 134.521 96.36 134.185 96.552C133.849 96.744 133.581 97.024 133.381 97.392C133.181 97.76 133.081 98.192 133.081 98.688C133.081 99.192 133.181 99.632 133.381 100.008C133.581 100.376 133.849 100.66 134.185 100.86C134.521 101.052 134.893 101.148 135.301 101.148C135.709 101.148 136.081 101.052 136.417 100.86C136.761 100.66 137.033 100.376 137.233 100.008C137.433 99.632 137.533 99.196 137.533 98.7ZM141.815 96.324V100.2C141.815 100.52 141.883 100.748 142.019 100.884C142.155 101.012 142.391 101.076 142.727 101.076H143.531V102H142.547C141.939 102 141.483 101.86 141.179 101.58C140.875 101.3 140.723 100.84 140.723 100.2V96.324H139.871V95.424H140.723V93.768H141.815V95.424H143.531V96.324H141.815ZM145.418 94.356C145.21 94.356 145.034 94.284 144.89 94.14C144.746 93.996 144.674 93.82 144.674 93.612C144.674 93.404 144.746 93.228 144.89 93.084C145.034 92.94 145.21 92.868 145.418 92.868C145.618 92.868 145.786 92.94 145.922 93.084C146.066 93.228 146.138 93.404 146.138 93.612C146.138 93.82 146.066 93.996 145.922 94.14C145.786 94.284 145.618 94.356 145.418 94.356ZM145.946 95.424V102H144.854V95.424H145.946ZM151.011 95.304C151.811 95.304 152.459 95.548 152.955 96.036C153.451 96.516 153.699 97.212 153.699 98.124V102H152.619V98.28C152.619 97.624 152.455 97.124 152.127 96.78C151.799 96.428 151.351 96.252 150.783 96.252C150.207 96.252 149.747 96.432 149.403 96.792C149.067 97.152 148.899 97.676 148.899 98.364V102H147.807V95.424H148.899V96.36C149.115 96.024 149.407 95.764 149.775 95.58C150.151 95.396 150.563 95.304 151.011 95.304ZM158.195 95.316C158.763 95.316 159.259 95.44 159.683 95.688C160.115 95.936 160.435 96.248 160.643 96.624V95.424H161.747V102.144C161.747 102.744 161.619 103.276 161.363 103.74C161.107 104.212 160.739 104.58 160.259 104.844C159.787 105.108 159.235 105.24 158.603 105.24C157.739 105.24 157.019 105.036 156.443 104.628C155.867 104.22 155.527 103.664 155.423 102.96H156.503C156.623 103.36 156.871 103.68 157.247 103.92C157.623 104.168 158.075 104.292 158.603 104.292C159.203 104.292 159.691 104.104 160.067 103.728C160.451 103.352 160.643 102.824 160.643 102.144V100.764C160.427 101.148 160.107 101.468 159.683 101.724C159.259 101.98 158.763 102.108 158.195 102.108C157.611 102.108 157.079 101.964 156.599 101.676C156.127 101.388 155.755 100.984 155.483 100.464C155.211 99.944 155.075 99.352 155.075 98.688C155.075 98.016 155.211 97.428 155.483 96.924C155.755 96.412 156.127 96.016 156.599 95.736C157.079 95.456 157.611 95.316 158.195 95.316ZM160.643 98.7C160.643 98.204 160.543 97.772 160.343 97.404C160.143 97.036 159.871 96.756 159.527 96.564C159.191 96.364 158.819 96.264 158.411 96.264C158.003 96.264 157.631 96.36 157.295 96.552C156.959 96.744 156.691 97.024 156.491 97.392C156.291 97.76 156.191 98.192 156.191 98.688C156.191 99.192 156.291 99.632 156.491 100.008C156.691 100.376 156.959 100.66 157.295 100.86C157.631 101.052 158.003 101.148 158.411 101.148C158.819 101.148 159.191 101.052 159.527 100.86C159.871 100.66 160.143 100.376 160.343 100.008C160.543 99.632 160.643 99.196 160.643 98.7ZM169.467 96.324H168.087V102H166.995V96.324H166.143V95.424H166.995V94.956C166.995 94.22 167.183 93.684 167.559 93.348C167.943 93.004 168.555 92.832 169.395 92.832V93.744C168.915 93.744 168.575 93.84 168.375 94.032C168.183 94.216 168.087 94.524 168.087 94.956V95.424H169.467V96.324ZM173.608 102.108C172.992 102.108 172.432 101.968 171.928 101.688C171.432 101.408 171.04 101.012 170.752 100.5C170.472 99.98 170.332 99.38 170.332 98.7C170.332 98.028 170.476 97.436 170.764 96.924C171.06 96.404 171.46 96.008 171.964 95.736C172.468 95.456 173.032 95.316 173.656 95.316C174.28 95.316 174.844 95.456 175.348 95.736C175.852 96.008 176.248 96.4 176.536 96.912C176.832 97.424 176.98 98.02 176.98 98.7C176.98 99.38 176.828 99.98 176.524 100.5C176.228 101.012 175.824 101.408 175.312 101.688C174.8 101.968 174.232 102.108 173.608 102.108ZM173.608 101.148C174 101.148 174.368 101.056 174.712 100.872C175.056 100.688 175.332 100.412 175.54 100.044C175.756 99.676 175.864 99.228 175.864 98.7C175.864 98.172 175.76 97.724 175.552 97.356C175.344 96.988 175.072 96.716 174.736 96.54C174.4 96.356 174.036 96.264 173.644 96.264C173.244 96.264 172.876 96.356 172.54 96.54C172.212 96.716 171.948 96.988 171.748 97.356C171.548 97.724 171.448 98.172 171.448 98.7C171.448 99.236 171.544 99.688 171.736 100.056C171.936 100.424 172.2 100.7 172.528 100.884C172.856 101.06 173.216 101.148 173.608 101.148ZM179.508 96.492C179.7 96.116 179.972 95.824 180.324 95.616C180.684 95.408 181.12 95.304 181.632 95.304V96.432H181.344C180.12 96.432 179.508 97.096 179.508 98.424V102H178.416V95.424H179.508V96.492ZM187.184 96.636C187.4 96.26 187.72 95.948 188.144 95.7C188.576 95.444 189.076 95.316 189.644 95.316C190.228 95.316 190.756 95.456 191.228 95.736C191.708 96.016 192.084 96.412 192.356 96.924C192.628 97.428 192.764 98.016 192.764 98.688C192.764 99.352 192.628 99.944 192.356 100.464C192.084 100.984 191.708 101.388 191.228 101.676C190.756 101.964 190.228 102.108 189.644 102.108C189.084 102.108 188.588 101.984 188.156 101.736C187.732 101.48 187.408 101.164 187.184 100.788V105.12H186.092V95.424H187.184V96.636ZM191.648 98.688C191.648 98.192 191.548 97.76 191.348 97.392C191.148 97.024 190.876 96.744 190.532 96.552C190.196 96.36 189.824 96.264 189.416 96.264C189.016 96.264 188.644 96.364 188.3 96.564C187.964 96.756 187.692 97.04 187.484 97.416C187.284 97.784 187.184 98.212 187.184 98.7C187.184 99.196 187.284 99.632 187.484 100.008C187.692 100.376 187.964 100.66 188.3 100.86C188.644 101.052 189.016 101.148 189.416 101.148C189.824 101.148 190.196 101.052 190.532 100.86C190.876 100.66 191.148 100.376 191.348 100.008C191.548 99.632 191.648 99.192 191.648 98.688ZM195.293 93.12V102H194.201V93.12H195.293ZM202.986 95.424V102H201.894V101.028C201.686 101.364 201.394 101.628 201.018 101.82C200.65 102.004 200.242 102.096 199.794 102.096C199.282 102.096 198.822 101.992 198.414 101.784C198.006 101.568 197.682 101.248 197.442 100.824C197.21 100.4 197.094 99.884 197.094 99.276V95.424H198.174V99.132C198.174 99.78 198.338 100.28 198.666 100.632C198.994 100.976 199.442 101.148 200.01 101.148C200.594 101.148 201.054 100.968 201.39 100.608C201.726 100.248 201.894 99.724 201.894 99.036V95.424H202.986ZM207.542 95.316C208.11 95.316 208.606 95.44 209.03 95.688C209.462 95.936 209.782 96.248 209.99 96.624V95.424H211.094V102.144C211.094 102.744 210.966 103.276 210.71 103.74C210.454 104.212 210.086 104.58 209.606 104.844C209.134 105.108 208.582 105.24 207.95 105.24C207.086 105.24 206.366 105.036 205.79 104.628C205.214 104.22 204.874 103.664 204.77 102.96H205.85C205.97 103.36 206.218 103.68 206.594 103.92C206.97 104.168 207.422 104.292 207.95 104.292C208.55 104.292 209.038 104.104 209.414 103.728C209.798 103.352 209.99 102.824 209.99 102.144V100.764C209.774 101.148 209.454 101.468 209.03 101.724C208.606 101.98 208.11 102.108 207.542 102.108C206.958 102.108 206.426 101.964 205.946 101.676C205.474 101.388 205.102 100.984 204.83 100.464C204.558 99.944 204.422 99.352 204.422 98.688C204.422 98.016 204.558 97.428 204.83 96.924C205.102 96.412 205.474 96.016 205.946 95.736C206.426 95.456 206.958 95.316 207.542 95.316ZM209.99 98.7C209.99 98.204 209.89 97.772 209.69 97.404C209.49 97.036 209.218 96.756 208.874 96.564C208.538 96.364 208.166 96.264 207.758 96.264C207.35 96.264 206.978 96.36 206.642 96.552C206.306 96.744 206.038 97.024 205.838 97.392C205.638 97.76 205.538 98.192 205.538 98.688C205.538 99.192 205.638 99.632 205.838 100.008C206.038 100.376 206.306 100.66 206.642 100.86C206.978 101.052 207.35 101.148 207.758 101.148C208.166 101.148 208.538 101.052 208.874 100.86C209.218 100.66 209.49 100.376 209.69 100.008C209.89 99.632 209.99 99.196 209.99 98.7ZM213.504 94.356C213.296 94.356 213.12 94.284 212.976 94.14C212.832 93.996 212.76 93.82 212.76 93.612C212.76 93.404 212.832 93.228 212.976 93.084C213.12 92.94 213.296 92.868 213.504 92.868C213.704 92.868 213.872 92.94 214.008 93.084C214.152 93.228 214.224 93.404 214.224 93.612C214.224 93.82 214.152 93.996 214.008 94.14C213.872 94.284 213.704 94.356 213.504 94.356ZM214.032 95.424V102H212.94V95.424H214.032ZM219.097 95.304C219.897 95.304 220.545 95.548 221.041 96.036C221.537 96.516 221.785 97.212 221.785 98.124V102H220.705V98.28C220.705 97.624 220.541 97.124 220.213 96.78C219.885 96.428 219.437 96.252 218.869 96.252C218.293 96.252 217.833 96.432 217.489 96.792C217.153 97.152 216.985 97.676 216.985 98.364V102H215.893V95.424H216.985V96.36C217.201 96.024 217.493 95.764 217.861 95.58C218.237 95.396 218.649 95.304 219.097 95.304ZM229.42 102.084C228.868 102.084 228.372 101.988 227.932 101.796C227.5 101.596 227.16 101.324 226.912 100.98C226.664 100.628 226.536 100.224 226.528 99.768H227.692C227.732 100.16 227.892 100.492 228.172 100.764C228.46 101.028 228.876 101.16 229.42 101.16C229.94 101.16 230.348 101.032 230.644 100.776C230.948 100.512 231.1 100.176 231.1 99.768C231.1 99.448 231.012 99.188 230.836 98.988C230.66 98.788 230.44 98.636 230.176 98.532C229.912 98.428 229.556 98.316 229.108 98.196C228.556 98.052 228.112 97.908 227.776 97.764C227.448 97.62 227.164 97.396 226.924 97.092C226.692 96.78 226.576 96.364 226.576 95.844C226.576 95.388 226.692 94.984 226.924 94.632C227.156 94.28 227.48 94.008 227.896 93.816C228.32 93.624 228.804 93.528 229.348 93.528C230.132 93.528 230.772 93.724 231.268 94.116C231.772 94.508 232.056 95.028 232.12 95.676H230.92C230.88 95.356 230.712 95.076 230.416 94.836C230.12 94.588 229.728 94.464 229.24 94.464C228.784 94.464 228.412 94.584 228.124 94.824C227.836 95.056 227.692 95.384 227.692 95.808C227.692 96.112 227.776 96.36 227.944 96.552C228.12 96.744 228.332 96.892 228.58 96.996C228.836 97.092 229.192 97.204 229.648 97.332C230.2 97.484 230.644 97.636 230.98 97.788C231.316 97.932 231.604 98.16 231.844 98.472C232.084 98.776 232.204 99.192 232.204 99.72C232.204 100.128 232.096 100.512 231.88 100.872C231.664 101.232 231.344 101.524 230.92 101.748C230.496 101.972 229.996 102.084 229.42 102.084ZM234.903 96.636C235.119 96.26 235.439 95.948 235.863 95.7C236.295 95.444 236.795 95.316 237.363 95.316C237.947 95.316 238.475 95.456 238.947 95.736C239.427 96.016 239.803 96.412 240.075 96.924C240.347 97.428 240.483 98.016 240.483 98.688C240.483 99.352 240.347 99.944 240.075 100.464C239.803 100.984 239.427 101.388 238.947 101.676C238.475 101.964 237.947 102.108 237.363 102.108C236.803 102.108 236.307 101.984 235.875 101.736C235.451 101.48 235.127 101.164 234.903 100.788V105.12H233.811V95.424H234.903V96.636ZM239.367 98.688C239.367 98.192 239.267 97.76 239.067 97.392C238.867 97.024 238.595 96.744 238.251 96.552C237.915 96.36 237.543 96.264 237.135 96.264C236.735 96.264 236.363 96.364 236.019 96.564C235.683 96.756 235.411 97.04 235.203 97.416C235.003 97.784 234.903 98.212 234.903 98.7C234.903 99.196 235.003 99.632 235.203 100.008C235.411 100.376 235.683 100.66 236.019 100.86C236.363 101.052 236.735 101.148 237.135 101.148C237.543 101.148 237.915 101.052 238.251 100.86C238.595 100.66 238.867 100.376 239.067 100.008C239.267 99.632 239.367 99.192 239.367 98.688ZM243.012 93.12V102H241.92V93.12H243.012ZM245.437 94.356C245.229 94.356 245.053 94.284 244.909 94.14C244.765 93.996 244.693 93.82 244.693 93.612C244.693 93.404 244.765 93.228 244.909 93.084C245.053 92.94 245.229 92.868 245.437 92.868C245.637 92.868 245.805 92.94 245.941 93.084C246.085 93.228 246.157 93.404 246.157 93.612C246.157 93.82 246.085 93.996 245.941 94.14C245.805 94.284 245.637 94.356 245.437 94.356ZM245.965 95.424V102H244.873V95.424H245.965ZM251.03 95.304C251.83 95.304 252.478 95.548 252.974 96.036C253.47 96.516 253.718 97.212 253.718 98.124V102H252.638V98.28C252.638 97.624 252.474 97.124 252.146 96.78C251.818 96.428 251.37 96.252 250.802 96.252C250.226 96.252 249.766 96.432 249.422 96.792C249.086 97.152 248.918 97.676 248.918 98.364V102H247.826V95.424H248.918V96.36C249.134 96.024 249.426 95.764 249.794 95.58C250.17 95.396 250.582 95.304 251.03 95.304ZM256.834 96.324V100.2C256.834 100.52 256.902 100.748 257.038 100.884C257.174 101.012 257.41 101.076 257.746 101.076H258.55V102H257.566C256.958 102 256.502 101.86 256.198 101.58C255.894 101.3 255.742 100.84 255.742 100.2V96.324H254.89V95.424H255.742V93.768H256.834V95.424H258.55V96.324H256.834ZM265.873 98.46C265.873 98.668 265.861 98.888 265.837 99.12H260.581C260.621 99.768 260.841 100.276 261.241 100.644C261.649 101.004 262.141 101.184 262.717 101.184C263.189 101.184 263.581 101.076 263.893 100.86C264.213 100.636 264.437 100.34 264.565 99.972H265.741C265.565 100.604 265.213 101.12 264.685 101.52C264.157 101.912 263.501 102.108 262.717 102.108C262.093 102.108 261.533 101.968 261.037 101.688C260.549 101.408 260.165 101.012 259.885 100.5C259.605 99.98 259.465 99.38 259.465 98.7C259.465 98.02 259.601 97.424 259.873 96.912C260.145 96.4 260.525 96.008 261.013 95.736C261.509 95.456 262.077 95.316 262.717 95.316C263.341 95.316 263.893 95.452 264.373 95.724C264.853 95.996 265.221 96.372 265.477 96.852C265.741 97.324 265.873 97.86 265.873 98.46ZM264.745 98.232C264.745 97.816 264.653 97.46 264.469 97.164C264.285 96.86 264.033 96.632 263.713 96.48C263.401 96.32 263.053 96.24 262.669 96.24C262.117 96.24 261.645 96.416 261.253 96.768C260.869 97.12 260.649 97.608 260.593 98.232H264.745ZM268.407 96.492C268.599 96.116 268.871 95.824 269.223 95.616C269.583 95.408 270.019 95.304 270.531 95.304V96.432H270.243C269.019 96.432 268.407 97.096 268.407 98.424V102H267.315V95.424H268.407V96.492ZM272.883 93.12V102H271.791V93.12H272.883ZM274.336 98.688C274.336 98.016 274.472 97.428 274.744 96.924C275.016 96.412 275.388 96.016 275.86 95.736C276.34 95.456 276.872 95.316 277.456 95.316C278.032 95.316 278.532 95.44 278.956 95.688C279.38 95.936 279.696 96.248 279.904 96.624V95.424H281.008V102H279.904V100.776C279.688 101.16 279.364 101.48 278.932 101.736C278.508 101.984 278.012 102.108 277.444 102.108C276.86 102.108 276.332 101.964 275.86 101.676C275.388 101.388 275.016 100.984 274.744 100.464C274.472 99.944 274.336 99.352 274.336 98.688ZM279.904 98.7C279.904 98.204 279.804 97.772 279.604 97.404C279.404 97.036 279.132 96.756 278.788 96.564C278.452 96.364 278.08 96.264 277.672 96.264C277.264 96.264 276.892 96.36 276.556 96.552C276.22 96.744 275.952 97.024 275.752 97.392C275.552 97.76 275.452 98.192 275.452 98.688C275.452 99.192 275.552 99.632 275.752 100.008C275.952 100.376 276.22 100.66 276.556 100.86C276.892 101.052 277.264 101.148 277.672 101.148C278.08 101.148 278.452 101.052 278.788 100.86C279.132 100.66 279.404 100.376 279.604 100.008C279.804 99.632 279.904 99.196 279.904 98.7ZM286.058 95.304C286.858 95.304 287.506 95.548 288.002 96.036C288.498 96.516 288.746 97.212 288.746 98.124V102H287.666V98.28C287.666 97.624 287.502 97.124 287.174 96.78C286.846 96.428 286.398 96.252 285.83 96.252C285.254 96.252 284.794 96.432 284.45 96.792C284.114 97.152 283.946 97.676 283.946 98.364V102H282.854V95.424H283.946V96.36C284.162 96.024 284.454 95.764 284.822 95.58C285.198 95.396 285.61 95.304 286.058 95.304ZM290.121 98.688C290.121 98.016 290.257 97.428 290.529 96.924C290.801 96.412 291.173 96.016 291.645 95.736C292.125 95.456 292.661 95.316 293.253 95.316C293.765 95.316 294.241 95.436 294.681 95.676C295.121 95.908 295.457 96.216 295.689 96.6V93.12H296.793V102H295.689V100.764C295.473 101.156 295.153 101.48 294.729 101.736C294.305 101.984 293.809 102.108 293.241 102.108C292.657 102.108 292.125 101.964 291.645 101.676C291.173 101.388 290.801 100.984 290.529 100.464C290.257 99.944 290.121 99.352 290.121 98.688ZM295.689 98.7C295.689 98.204 295.589 97.772 295.389 97.404C295.189 97.036 294.917 96.756 294.573 96.564C294.237 96.364 293.865 96.264 293.457 96.264C293.049 96.264 292.677 96.36 292.341 96.552C292.005 96.744 291.737 97.024 291.537 97.392C291.337 97.76 291.237 98.192 291.237 98.688C291.237 99.192 291.337 99.632 291.537 100.008C291.737 100.376 292.005 100.66 292.341 100.86C292.677 101.052 293.049 101.148 293.457 101.148C293.865 101.148 294.237 101.052 294.573 100.86C294.917 100.66 295.189 100.376 295.389 100.008C295.589 99.632 295.689 99.196 295.689 98.7ZM300.967 102.108C300.463 102.108 300.011 102.024 299.611 101.856C299.211 101.68 298.895 101.44 298.663 101.136C298.431 100.824 298.303 100.468 298.279 100.068H299.407C299.439 100.396 299.591 100.664 299.863 100.872C300.143 101.08 300.507 101.184 300.955 101.184C301.371 101.184 301.699 101.092 301.939 100.908C302.179 100.724 302.299 100.492 302.299 100.212C302.299 99.924 302.171 99.712 301.915 99.576C301.659 99.432 301.263 99.292 300.727 99.156C300.239 99.028 299.839 98.9 299.527 98.772C299.223 98.636 298.959 98.44 298.735 98.184C298.519 97.92 298.411 97.576 298.411 97.152C298.411 96.816 298.511 96.508 298.711 96.228C298.911 95.948 299.195 95.728 299.563 95.568C299.931 95.4 300.351 95.316 300.823 95.316C301.551 95.316 302.139 95.5 302.587 95.868C303.035 96.236 303.275 96.74 303.307 97.38H302.215C302.191 97.036 302.051 96.76 301.795 96.552C301.547 96.344 301.211 96.24 300.787 96.24C300.395 96.24 300.083 96.324 299.851 96.492C299.619 96.66 299.503 96.88 299.503 97.152C299.503 97.368 299.571 97.548 299.707 97.692C299.851 97.828 300.027 97.94 300.235 98.028C300.451 98.108 300.747 98.2 301.123 98.304C301.595 98.432 301.979 98.56 302.275 98.688C302.571 98.808 302.823 98.992 303.031 99.24C303.247 99.488 303.359 99.812 303.367 100.212C303.367 100.572 303.267 100.896 303.067 101.184C302.867 101.472 302.583 101.7 302.215 101.868C301.855 102.028 301.439 102.108 300.967 102.108ZM313.7 96.084C313.7 96.78 313.46 97.36 312.98 97.824C312.508 98.28 311.784 98.508 310.808 98.508H309.2V102H308.108V93.636H310.808C311.752 93.636 312.468 93.864 312.956 94.32C313.452 94.776 313.7 95.364 313.7 96.084ZM310.808 97.608C311.416 97.608 311.864 97.476 312.152 97.212C312.44 96.948 312.584 96.572 312.584 96.084C312.584 95.052 311.992 94.536 310.808 94.536H309.2V97.608H310.808ZM314.649 98.688C314.649 98.016 314.785 97.428 315.057 96.924C315.329 96.412 315.701 96.016 316.173 95.736C316.653 95.456 317.185 95.316 317.769 95.316C318.345 95.316 318.845 95.44 319.269 95.688C319.693 95.936 320.009 96.248 320.217 96.624V95.424H321.321V102H320.217V100.776C320.001 101.16 319.677 101.48 319.245 101.736C318.821 101.984 318.325 102.108 317.757 102.108C317.173 102.108 316.645 101.964 316.173 101.676C315.701 101.388 315.329 100.984 315.057 100.464C314.785 99.944 314.649 99.352 314.649 98.688ZM320.217 98.7C320.217 98.204 320.117 97.772 319.917 97.404C319.717 97.036 319.445 96.756 319.101 96.564C318.765 96.364 318.393 96.264 317.985 96.264C317.577 96.264 317.205 96.36 316.869 96.552C316.533 96.744 316.265 97.024 316.065 97.392C315.865 97.76 315.765 98.192 315.765 98.688C315.765 99.192 315.865 99.632 316.065 100.008C316.265 100.376 316.533 100.66 316.869 100.86C317.205 101.052 317.577 101.148 317.985 101.148C318.393 101.148 318.765 101.052 319.101 100.86C319.445 100.66 319.717 100.376 319.917 100.008C320.117 99.632 320.217 99.196 320.217 98.7ZM322.758 98.7C322.758 98.02 322.894 97.428 323.166 96.924C323.438 96.412 323.814 96.016 324.294 95.736C324.782 95.456 325.338 95.316 325.962 95.316C326.77 95.316 327.434 95.512 327.954 95.904C328.482 96.296 328.83 96.84 328.998 97.536H327.822C327.71 97.136 327.49 96.82 327.162 96.588C326.842 96.356 326.442 96.24 325.962 96.24C325.338 96.24 324.834 96.456 324.45 96.888C324.066 97.312 323.874 97.916 323.874 98.7C323.874 99.492 324.066 100.104 324.45 100.536C324.834 100.968 325.338 101.184 325.962 101.184C326.442 101.184 326.842 101.072 327.162 100.848C327.482 100.624 327.702 100.304 327.822 99.888H328.998C328.822 100.56 328.47 101.1 327.942 101.508C327.414 101.908 326.754 102.108 325.962 102.108C325.338 102.108 324.782 101.968 324.294 101.688C323.814 101.408 323.438 101.012 323.166 100.5C322.894 99.988 322.758 99.388 322.758 98.7ZM334.127 102L331.547 99.096V102H330.455V93.12H331.547V98.34L334.079 95.424H335.603L332.507 98.7L335.615 102H334.127ZM336.979 102.072C336.771 102.072 336.595 102 336.451 101.856C336.307 101.712 336.235 101.536 336.235 101.328C336.235 101.12 336.307 100.944 336.451 100.8C336.595 100.656 336.771 100.584 336.979 100.584C337.179 100.584 337.347 100.656 337.483 100.8C337.627 100.944 337.699 101.12 337.699 101.328C337.699 101.536 337.627 101.712 337.483 101.856C337.347 102 337.179 102.072 336.979 102.072Z" fill="#D0D2D6"/>
    <path d="M117.366 151.922C117.104 150.85 116.318 150.314 115.27 150.046L98.5022 147.634L90.9044 132.091C90.1184 130.215 86.9745 130.215 86.1885 132.091L78.5907 147.366L62.0851 150.046C61.0371 150.046 60.2511 150.85 59.7272 151.922C59.4652 152.994 59.7272 154.066 60.5131 154.602L72.5648 166.661L69.6829 183.813C69.4209 184.884 69.9449 185.956 70.7309 186.492C71.5169 187.028 72.5648 187.296 73.6128 186.76L88.5465 178.721L103.48 186.76C104.004 186.76 104.266 186.76 104.79 186.76C105.314 186.76 105.838 186.492 106.362 186.224C107.148 185.688 107.672 184.616 107.41 183.545L104.528 166.393L116.58 154.334C117.366 153.798 117.628 152.726 117.366 151.922Z" fill="black"/>
    <mask id="mask0_753_64887" style="mask-type:alpha" maskUnits="userSpaceOnUse" x="59" y="130" width="59" height="58">
    <path d="M117.366 151.922C117.104 150.85 116.318 150.314 115.27 150.046L98.5022 147.634L90.9044 132.091C90.1184 130.215 86.9745 130.215 86.1885 132.091L78.5907 147.366L62.0851 150.046C61.0371 150.046 60.2511 150.85 59.7272 151.922C59.4652 152.994 59.7272 154.066 60.5131 154.602L72.5648 166.661L69.6829 183.813C69.4209 184.884 69.9449 185.956 70.7309 186.492C71.5169 187.028 72.5648 187.296 73.6128 186.76L88.5465 178.721L103.48 186.76C104.004 186.76 104.266 186.76 104.79 186.76C105.314 186.76 105.838 186.492 106.362 186.224C107.148 185.688 107.672 184.616 107.41 183.545L104.528 166.393L116.58 154.334C117.366 153.798 117.628 152.726 117.366 151.922Z" fill="white"/>
    </mask>
    <g mask="url(#mask0_753_64887)">
    <rect x="57" y="128" width="63.0928" height="64.4211" fill="#FF9F43"/>
    </g>
    <path d="M187.468 151.922C187.206 150.85 186.42 150.314 185.372 150.046L168.604 147.634L161.006 132.091C160.22 130.215 157.077 130.215 156.291 132.091L148.693 147.366L132.187 150.046C131.139 150.046 130.353 150.85 129.829 151.922C129.567 152.994 129.829 154.066 130.615 154.602L142.667 166.661L139.785 183.813C139.523 184.884 140.047 185.956 140.833 186.492C141.619 187.028 142.667 187.296 143.715 186.76L158.649 178.721L173.582 186.76C174.106 186.76 174.368 186.76 174.892 186.76C175.416 186.76 175.94 186.492 176.464 186.224C177.25 185.688 177.774 184.616 177.512 183.545L174.63 166.393L186.682 154.334C187.468 153.798 187.73 152.726 187.468 151.922Z" fill="black"/>
    <mask id="mask1_753_64887" style="mask-type:alpha" maskUnits="userSpaceOnUse" x="129" y="130" width="59" height="58">
    <path d="M187.468 151.922C187.206 150.85 186.42 150.314 185.372 150.046L168.604 147.634L161.006 132.091C160.22 130.215 157.077 130.215 156.291 132.091L148.693 147.366L132.187 150.046C131.139 150.046 130.353 150.85 129.829 151.922C129.567 152.994 129.829 154.066 130.615 154.602L142.667 166.661L139.785 183.813C139.523 184.884 140.047 185.956 140.833 186.492C141.619 187.028 142.667 187.296 143.715 186.76L158.649 178.721L173.582 186.76C174.106 186.76 174.368 186.76 174.892 186.76C175.416 186.76 175.94 186.492 176.464 186.224C177.25 185.688 177.774 184.616 177.512 183.545L174.63 166.393L186.682 154.334C187.468 153.798 187.73 152.726 187.468 151.922Z" fill="white"/>
    </mask>
    <g mask="url(#mask1_753_64887)">
    <rect x="127.102" y="128" width="63.0928" height="64.4211" fill="#FF9F43"/>
    </g>
    <path d="M261.078 151.922C260.816 150.85 260.03 150.314 258.982 150.046L242.214 147.634L234.616 132.091C233.83 130.215 230.686 130.215 229.9 132.091L222.303 147.366L205.797 150.046C204.749 150.046 203.963 150.85 203.439 151.922C203.177 152.994 203.439 154.066 204.225 154.602L216.277 166.661L213.395 183.813C213.133 184.884 213.657 185.956 214.443 186.492C215.229 187.028 216.277 187.296 217.325 186.76L232.258 178.721L247.192 186.76C247.716 186.76 247.978 186.76 248.502 186.76C249.026 186.76 249.55 186.492 250.074 186.224C250.86 185.688 251.384 184.616 251.122 183.545L248.24 166.393L260.292 154.334C261.078 153.798 261.34 152.726 261.078 151.922Z" fill="black"/>
    <mask id="mask2_753_64887" style="mask-type:alpha" maskUnits="userSpaceOnUse" x="203" y="130" width="59" height="58">
    <path d="M261.078 151.922C260.816 150.85 260.03 150.314 258.982 150.046L242.214 147.634L234.616 132.091C233.83 130.215 230.686 130.215 229.9 132.091L222.303 147.366L205.797 150.046C204.749 150.046 203.963 150.85 203.439 151.922C203.177 152.994 203.439 154.066 204.225 154.602L216.277 166.661L213.395 183.813C213.133 184.884 213.657 185.956 214.443 186.492C215.229 187.028 216.277 187.296 217.325 186.76L232.258 178.721L247.192 186.76C247.716 186.76 247.978 186.76 248.502 186.76C249.026 186.76 249.55 186.492 250.074 186.224C250.86 185.688 251.384 184.616 251.122 183.545L248.24 166.393L260.292 154.334C261.078 153.798 261.34 152.726 261.078 151.922Z" fill="white"/>
    </mask>
    <g mask="url(#mask2_753_64887)">
    <rect x="200.712" y="128" width="63.0928" height="64.4211" fill="#FF9F43"/>
    </g>
    <path d="M324.17 151.922C323.908 150.85 323.122 150.314 322.074 150.046L305.306 147.634L297.709 132.091C296.923 130.215 293.779 130.215 292.993 132.091L285.395 147.366L268.889 150.046C267.841 150.046 267.055 150.85 266.531 151.922C266.269 152.994 266.531 154.066 267.317 154.602L279.369 166.661L276.487 183.813C276.225 184.884 276.749 185.956 277.535 186.492C278.321 187.028 279.369 187.296 280.417 186.76L295.351 178.721L310.284 186.76C310.808 186.76 311.07 186.76 311.594 186.76C312.118 186.76 312.642 186.492 313.166 186.224C313.952 185.688 314.476 184.616 314.214 183.545L311.332 166.393L323.384 154.334C324.17 153.798 324.432 152.726 324.17 151.922Z" fill="black"/>
    <mask id="mask3_753_64887" style="mask-type:alpha" maskUnits="userSpaceOnUse" x="266" y="130" width="59" height="58">
    <path d="M324.17 151.922C323.908 150.85 323.122 150.314 322.074 150.046L305.306 147.634L297.709 132.091C296.923 130.215 293.779 130.215 292.993 132.091L285.395 147.366L268.889 150.046C267.841 150.046 267.055 150.85 266.531 151.922C266.269 152.994 266.531 154.066 267.317 154.602L279.369 166.661L276.487 183.813C276.225 184.884 276.749 185.956 277.535 186.492C278.321 187.028 279.369 187.296 280.417 186.76L295.351 178.721L310.284 186.76C310.808 186.76 311.07 186.76 311.594 186.76C312.118 186.76 312.642 186.492 313.166 186.224C313.952 185.688 314.476 184.616 314.214 183.545L311.332 166.393L323.384 154.334C324.17 153.798 324.432 152.726 324.17 151.922Z" fill="white"/>
    </mask>
    <g mask="url(#mask3_753_64887)">
    <rect x="263.804" y="128" width="63.0928" height="64.4211" fill="#FF9F43"/>
    </g>
    <path fill-rule="evenodd" clip-rule="evenodd" d="M392.177 150.046C393.225 150.314 394.011 150.85 394.273 151.922C394.535 152.726 394.273 153.798 393.487 154.334L381.435 166.393L384.317 183.545C384.579 184.616 384.055 185.688 383.269 186.224C382.745 186.492 382.221 186.76 381.697 186.76H380.387L365.454 178.721L350.52 186.76C349.472 187.296 348.424 187.028 347.638 186.492C346.852 185.956 346.328 184.884 346.59 183.813L349.472 166.661L337.42 154.602C336.634 154.066 336.372 152.994 336.634 151.922C337.158 150.85 337.944 150.046 338.992 150.046L355.498 147.366L363.096 132.091C363.882 130.215 367.026 130.215 367.812 132.091L375.409 147.634L392.177 150.046ZM375.933 166.125C375.933 165.321 376.195 164.517 376.719 163.713L386.151 154.334L373.313 152.458C372.266 152.458 371.48 151.922 371.218 151.118L365.454 139.327L359.69 151.386C359.166 151.922 358.38 152.726 357.594 152.726L344.756 154.602L354.188 163.713C354.712 164.517 354.974 165.321 354.974 166.125L352.616 179.257L364.144 173.093C364.93 172.557 365.716 172.557 366.502 173.093L378.029 179.257L375.933 166.125Z" fill="black"/>
    <mask id="mask4_753_64887" style="mask-type:alpha" maskUnits="userSpaceOnUse" x="336" y="130" width="59" height="58">
    <path fill-rule="evenodd" clip-rule="evenodd" d="M392.177 150.046C393.225 150.314 394.011 150.85 394.273 151.922C394.535 152.726 394.273 153.798 393.487 154.334L381.435 166.393L384.317 183.545C384.579 184.616 384.055 185.688 383.269 186.224C382.745 186.492 382.221 186.76 381.697 186.76H380.387L365.454 178.721L350.52 186.76C349.472 187.296 348.424 187.028 347.638 186.492C346.852 185.956 346.328 184.884 346.59 183.813L349.472 166.661L337.42 154.602C336.634 154.066 336.372 152.994 336.634 151.922C337.158 150.85 337.944 150.046 338.992 150.046L355.498 147.366L363.096 132.091C363.882 130.215 367.026 130.215 367.812 132.091L375.409 147.634L392.177 150.046ZM375.933 166.125C375.933 165.321 376.195 164.517 376.719 163.713L386.151 154.334L373.313 152.458C372.266 152.458 371.48 151.922 371.218 151.118L365.454 139.327L359.69 151.386C359.166 151.922 358.38 152.726 357.594 152.726L344.756 154.602L354.188 163.713C354.712 164.517 354.974 165.321 354.974 166.125L352.616 179.257L364.144 173.093C364.93 172.557 365.716 172.557 366.502 173.093L378.029 179.257L375.933 166.125Z" fill="white"/>
    </mask>
    <g mask="url(#mask4_753_64887)">
    <rect x="333.907" y="128" width="63.0928" height="64.4211" fill="#BABFC7"/>
    </g>
    <path d="M24 25C24 22.2386 26.2386 20 29 20H458C460.761 20 463 22.2386 463 25V68H24V25Z" fill="#2B2D37"/>
    <g filter="url(#filter1_d_753_64887)">
    <rect x="435" y="14" width="34" height="34" rx="6" fill="black" fill-opacity="0.01"/>
    </g>
    <path d="M430 27C430 23.6863 432.686 21 436 21H458C461.314 21 464 23.6863 464 27V49C464 52.3137 461.314 55 458 55H436C432.686 55 430 52.3137 430 49V27Z" fill="#2B2D37"/>
    <path d="M450.583 45.4165C450.917 45.7498 450.917 46.2498 450.583 46.5832C450.417 46.7498 450.25 46.8332 450 46.8332C449.75 46.8332 449.583 46.7498 449.417 46.5832L445 42.1665L440.583 46.5832C440.417 46.7498 440.25 46.8332 440 46.8332C439.75 46.8332 439.583 46.7498 439.417 46.5832C439.083 46.2498 439.083 45.7498 439.417 45.4165L443.833 40.9998L439.417 36.5832C439.083 36.2498 439.083 35.7498 439.417 35.4165C439.75 35.0832 440.25 35.0832 440.583 35.4165L445 39.8332L449.417 35.4165C449.75 35.0832 450.25 35.0832 450.583 35.4165C450.917 35.7498 450.917 36.2498 450.583 36.5832L446.167 40.9998L450.583 45.4165Z" fill="black"/>
    <mask id="mask5_753_64887" style="mask-type:alpha" maskUnits="userSpaceOnUse" x="439" y="35" width="12" height="12">
    <path d="M450.583 45.4165C450.917 45.7498 450.917 46.2498 450.583 46.5832C450.417 46.7498 450.25 46.8332 450 46.8332C449.75 46.8332 449.583 46.7498 449.417 46.5832L445 42.1665L440.583 46.5832C440.417 46.7498 440.25 46.8332 440 46.8332C439.75 46.8332 439.583 46.7498 439.417 46.5832C439.083 46.2498 439.083 45.7498 439.417 45.4165L443.833 40.9998L439.417 36.5832C439.083 36.2498 439.083 35.7498 439.417 35.4165C439.75 35.0832 440.25 35.0832 440.583 35.4165L445 39.8332L449.417 35.4165C449.75 35.0832 450.25 35.0832 450.583 35.4165C450.917 35.7498 450.917 36.2498 450.583 36.5832L446.167 40.9998L450.583 45.4165Z" fill="white"/>
    </mask>
    <g mask="url(#mask5_753_64887)">
    <rect x="435" y="31" width="20" height="20" fill="#B4B7BD"/>
    </g>
    <path d="M56.848 51L53.968 45.996H52.402V51H50.35V38.49H54.67C55.63 38.49 56.44 38.658 57.1 38.994C57.772 39.33 58.27 39.78 58.594 40.344C58.93 40.908 59.098 41.538 59.098 42.234C59.098 43.05 58.858 43.794 58.378 44.466C57.91 45.126 57.184 45.576 56.2 45.816L59.296 51H56.848ZM52.402 44.358H54.67C55.438 44.358 56.014 44.166 56.398 43.782C56.794 43.398 56.992 42.882 56.992 42.234C56.992 41.586 56.8 41.082 56.416 40.722C56.032 40.35 55.45 40.164 54.67 40.164H52.402V44.358ZM61.039 45.996C61.039 45 61.243 44.118 61.651 43.35C62.071 42.582 62.635 41.988 63.343 41.568C64.063 41.136 64.855 40.92 65.719 40.92C66.499 40.92 67.177 41.076 67.753 41.388C68.341 41.688 68.809 42.066 69.157 42.522V41.082H71.227V51H69.157V49.524C68.809 49.992 68.335 50.382 67.735 50.694C67.135 51.006 66.451 51.162 65.683 51.162C64.831 51.162 64.051 50.946 63.343 50.514C62.635 50.07 62.071 49.458 61.651 48.678C61.243 47.886 61.039 46.992 61.039 45.996ZM69.157 46.032C69.157 45.348 69.013 44.754 68.725 44.25C68.449 43.746 68.083 43.362 67.627 43.098C67.171 42.834 66.679 42.702 66.151 42.702C65.623 42.702 65.131 42.834 64.675 43.098C64.219 43.35 63.847 43.728 63.559 44.232C63.283 44.724 63.145 45.312 63.145 45.996C63.145 46.68 63.283 47.28 63.559 47.796C63.847 48.312 64.219 48.708 64.675 48.984C65.143 49.248 65.635 49.38 66.151 49.38C66.679 49.38 67.171 49.248 67.627 48.984C68.083 48.72 68.449 48.336 68.725 47.832C69.013 47.316 69.157 46.716 69.157 46.032ZM76.3163 42.756V48.246C76.3163 48.618 76.4003 48.888 76.5683 49.056C76.7483 49.212 77.0483 49.29 77.4683 49.29H78.7283V51H77.1083C76.1843 51 75.4763 50.784 74.9843 50.352C74.4923 49.92 74.2463 49.218 74.2463 48.246V42.756H73.0763V41.082H74.2463V38.616H76.3163V41.082H78.7283V42.756H76.3163ZM89.7095 45.798C89.7095 46.17 89.6855 46.506 89.6375 46.806H82.0595C82.1195 47.598 82.4135 48.234 82.9415 48.714C83.4695 49.194 84.1175 49.434 84.8855 49.434C85.9895 49.434 86.7695 48.972 87.2255 48.048H89.4395C89.1395 48.96 88.5935 49.71 87.8015 50.298C87.0215 50.874 86.0495 51.162 84.8855 51.162C83.9375 51.162 83.0855 50.952 82.3295 50.532C81.5855 50.1 80.9975 49.5 80.5655 48.732C80.1455 47.952 79.9355 47.052 79.9355 46.032C79.9355 45.012 80.1395 44.118 80.5475 43.35C80.9675 42.57 81.5495 41.97 82.2935 41.55C83.0495 41.13 83.9135 40.92 84.8855 40.92C85.8215 40.92 86.6555 41.124 87.3875 41.532C88.1195 41.94 88.6895 42.516 89.0975 43.26C89.5055 43.992 89.7095 44.838 89.7095 45.798ZM87.5675 45.15C87.5555 44.394 87.2855 43.788 86.7575 43.332C86.2295 42.876 85.5755 42.648 84.7955 42.648C84.0875 42.648 83.4815 42.876 82.9775 43.332C82.4735 43.776 82.1735 44.382 82.0775 45.15H87.5675ZM105.153 42.216C105.153 42.852 105.003 43.452 104.703 44.016C104.403 44.58 103.923 45.042 103.263 45.402C102.603 45.75 101.757 45.924 100.725 45.924H98.4567V51H96.4047V38.49H100.725C101.685 38.49 102.495 38.658 103.155 38.994C103.827 39.318 104.325 39.762 104.649 40.326C104.985 40.89 105.153 41.52 105.153 42.216ZM100.725 44.25C101.505 44.25 102.087 44.076 102.471 43.728C102.855 43.368 103.047 42.864 103.047 42.216C103.047 40.848 102.273 40.164 100.725 40.164H98.4567V44.25H100.725ZM109.162 37.68V51H107.11V37.68H109.162ZM120.838 41.082V51H118.786V49.83C118.462 50.238 118.036 50.562 117.508 50.802C116.992 51.03 116.44 51.144 115.852 51.144C115.072 51.144 114.37 50.982 113.746 50.658C113.134 50.334 112.648 49.854 112.288 49.218C111.94 48.582 111.766 47.814 111.766 46.914V41.082H113.8V46.608C113.8 47.496 114.022 48.18 114.466 48.66C114.91 49.128 115.516 49.362 116.284 49.362C117.052 49.362 117.658 49.128 118.102 48.66C118.558 48.18 118.786 47.496 118.786 46.608V41.082H120.838ZM127.541 40.92C128.309 40.92 128.987 41.076 129.575 41.388C130.175 41.688 130.643 42.066 130.979 42.522V41.082H133.049V51.162C133.049 52.074 132.857 52.884 132.473 53.592C132.089 54.312 131.531 54.876 130.799 55.284C130.079 55.692 129.215 55.896 128.207 55.896C126.863 55.896 125.747 55.578 124.859 54.942C123.971 54.318 123.467 53.466 123.347 52.386H125.381C125.537 52.902 125.867 53.316 126.371 53.628C126.887 53.952 127.499 54.114 128.207 54.114C129.035 54.114 129.701 53.862 130.205 53.358C130.721 52.854 130.979 52.122 130.979 51.162V49.506C130.631 49.974 130.157 50.37 129.557 50.694C128.969 51.006 128.297 51.162 127.541 51.162C126.677 51.162 125.885 50.946 125.165 50.514C124.457 50.07 123.893 49.458 123.473 48.678C123.065 47.886 122.861 46.992 122.861 45.996C122.861 45 123.065 44.118 123.473 43.35C123.893 42.582 124.457 41.988 125.165 41.568C125.885 41.136 126.677 40.92 127.541 40.92ZM130.979 46.032C130.979 45.348 130.835 44.754 130.547 44.25C130.271 43.746 129.905 43.362 129.449 43.098C128.993 42.834 128.501 42.702 127.973 42.702C127.445 42.702 126.953 42.834 126.497 43.098C126.041 43.35 125.669 43.728 125.381 44.232C125.105 44.724 124.967 45.312 124.967 45.996C124.967 46.68 125.105 47.28 125.381 47.796C125.669 48.312 126.041 48.708 126.497 48.984C126.965 49.248 127.457 49.38 127.973 49.38C128.501 49.38 128.993 49.248 129.449 48.984C129.905 48.72 130.271 48.336 130.547 47.832C130.835 47.316 130.979 46.716 130.979 46.032ZM136.789 39.768C136.417 39.768 136.105 39.642 135.853 39.39C135.601 39.138 135.475 38.826 135.475 38.454C135.475 38.082 135.601 37.77 135.853 37.518C136.105 37.266 136.417 37.14 136.789 37.14C137.149 37.14 137.455 37.266 137.707 37.518C137.959 37.77 138.085 38.082 138.085 38.454C138.085 38.826 137.959 39.138 137.707 39.39C137.455 39.642 137.149 39.768 136.789 39.768ZM137.797 41.082V51H135.745V41.082H137.797ZM145.495 40.92C146.275 40.92 146.971 41.082 147.583 41.406C148.207 41.73 148.693 42.21 149.041 42.846C149.389 43.482 149.563 44.25 149.563 45.15V51H147.529V45.456C147.529 44.568 147.307 43.89 146.863 43.422C146.419 42.942 145.813 42.702 145.045 42.702C144.277 42.702 143.665 42.942 143.209 43.422C142.765 43.89 142.543 44.568 142.543 45.456V51H140.491V41.082H142.543V42.216C142.879 41.808 143.305 41.49 143.821 41.262C144.349 41.034 144.907 40.92 145.495 40.92Z" fill="#D0D2D6"/>
    <defs>
    <filter id="filter0_d_753_64887" x="0" y="0" width="488" height="315" filterUnits="userSpaceOnUse" color-interpolation-filters="sRGB">
    <feFlood flood-opacity="0" result="BackgroundImageFix"/>
    <feColorMatrix in="SourceAlpha" type="matrix" values="0 0 0 0 0 0 0 0 0 0 0 0 0 0 0 0 0 0 127 0" result="hardAlpha"/>
    <feOffset dy="4"/>
    <feGaussianBlur stdDeviation="12"/>
    <feColorMatrix type="matrix" values="0 0 0 0 0.0862745 0 0 0 0 0.0862745 0 0 0 0 0.133333 0 0 0 0.6 0"/>
    <feBlend mode="normal" in2="BackgroundImageFix" result="effect1_dropShadow_753_64887"/>
    <feBlend mode="normal" in="SourceGraphic" in2="effect1_dropShadow_753_64887" result="shape"/>
    </filter>
    <filter id="filter1_d_753_64887" x="427" y="9" width="50" height="50" filterUnits="userSpaceOnUse" color-interpolation-filters="sRGB">
    <feFlood flood-opacity="0" result="BackgroundImageFix"/>
    <feColorMatrix in="SourceAlpha" type="matrix" values="0 0 0 0 0 0 0 0 0 0 0 0 0 0 0 0 0 0 127 0" result="hardAlpha"/>
    <feOffset dy="3"/>
    <feGaussianBlur stdDeviation="4"/>
    <feColorMatrix type="matrix" values="0 0 0 0 0 0 0 0 0 0 0 0 0 0 0 0 0 0 0.4 0"/>
    <feBlend mode="normal" in2="BackgroundImageFix" result="effect1_dropShadow_753_64887"/>
    <feBlend mode="normal" in="SourceGraphic" in2="effect1_dropShadow_753_64887" result="shape"/>
    </filter>
    </defs>
    </svg>
    